<svg width="56" height="42" viewBox="0 0 56 42" fill="none" xmlns="http://www.w3.org/2000/svg">
<path d="M10.6575 20.1971C4.4541 20.1971 0.257812 16.1476 0.257812 10.1475C0.257812 4.74821 5.07167 0.25 11.5918 0.25C18.7334 0.25 24.0104 5.64933 24.0104 13.8967C24.0104 32.6423 9.4184 40.1405 0.257812 41.0417V32.7943C6.46912 31.7449 13.4524 25.8968 13.7651 19.4443C13.4524 19.5927 12.2133 20.1971 10.6575 20.1971ZM42.3276 20.1971C36.1203 20.1971 31.9279 16.1476 31.9279 10.1475C31.9279 4.74821 36.7418 0.25 43.2619 0.25C50.4035 0.25 55.6805 5.64933 55.6805 13.8967C55.6805 32.6423 41.0885 40.1405 31.9279 41.0417V32.7943C38.1392 31.7449 45.1225 25.8968 45.4353 19.4443C45.1225 19.5927 43.8834 20.1971 42.3276 20.1971Z" fill="white"/>
</svg>
