<svg width="63" height="63" viewBox="0 0 63 63" fill="none" xmlns="http://www.w3.org/2000/svg">
<g filter="url(#filter0_b_249_6103)">
<circle cx="31.1254" cy="31.3754" r="31.1254" fill="url(#paint0_linear_249_6103)"/>
</g>
<path fill-rule="evenodd" clip-rule="evenodd" d="M24.6954 14.597C26.4549 14.516 27.0159 14.498 31.4978 14.498C35.9797 14.498 36.5407 14.5175 38.2987 14.597C40.0567 14.6765 41.2567 14.957 42.3066 15.3635C43.4061 15.779 44.4036 16.4285 45.2286 17.2685C46.0686 18.092 46.7166 19.088 47.1306 20.189C47.5386 21.2389 47.8176 22.4389 47.8986 24.1939C47.9796 25.9564 47.9976 26.5174 47.9976 30.9978C47.9976 35.4797 47.9781 36.0407 47.8986 37.8002C47.8191 39.5552 47.5386 40.7552 47.1306 41.8051C46.7166 42.9063 46.0675 43.9039 45.2286 44.7286C44.4036 45.5686 43.4061 46.2166 42.3066 46.6306C41.2567 47.0386 40.0567 47.3176 38.3017 47.3986C36.5407 47.4796 35.9797 47.4976 31.4978 47.4976C27.0159 47.4976 26.4549 47.4781 24.6954 47.3986C22.9404 47.3191 21.7404 47.0386 20.6905 46.6306C19.5894 46.2165 18.5917 45.5675 17.767 44.7286C16.9276 43.9046 16.278 42.9074 15.8635 41.8066C15.457 40.7567 15.178 39.5567 15.097 37.8017C15.016 36.0392 14.998 35.4782 14.998 30.9978C14.998 26.5159 15.0175 25.9549 15.097 24.1969C15.1765 22.4389 15.457 21.2389 15.8635 20.189C16.2786 19.0881 16.9287 18.091 17.7685 17.267C18.5921 16.4278 19.5887 15.7782 20.689 15.3635C21.7389 14.957 22.9389 14.678 24.6939 14.597H24.6954ZM38.1652 17.567C36.4252 17.4875 35.9032 17.471 31.4978 17.471C27.0924 17.471 26.5704 17.4875 24.8304 17.567C23.2209 17.6405 22.3479 17.909 21.7659 18.1355C20.9965 18.4355 20.446 18.791 19.8685 19.3685C19.321 19.901 18.8998 20.5494 18.6355 21.2659C18.409 21.8479 18.1405 22.7209 18.067 24.3304C17.9875 26.0704 17.971 26.5924 17.971 30.9978C17.971 35.4032 17.9875 35.9252 18.067 37.6652C18.1405 39.2747 18.409 40.1477 18.6355 40.7297C18.8995 41.4451 19.321 42.0946 19.8685 42.6271C20.401 43.1746 21.0505 43.5961 21.7659 43.8601C22.3479 44.0866 23.2209 44.3551 24.8304 44.4286C26.5704 44.5081 27.0909 44.5246 31.4978 44.5246C35.9047 44.5246 36.4252 44.5081 38.1652 44.4286C39.7747 44.3551 40.6477 44.0866 41.2297 43.8601C41.9991 43.5601 42.5496 43.2046 43.1271 42.6271C43.6746 42.0946 44.0961 41.4451 44.3601 40.7297C44.5866 40.1477 44.8551 39.2747 44.9286 37.6652C45.0081 35.9252 45.0246 35.4032 45.0246 30.9978C45.0246 26.5924 45.0081 26.0704 44.9286 24.3304C44.8551 22.7209 44.5866 21.8479 44.3601 21.2659C44.0601 20.4965 43.7046 19.946 43.1271 19.3685C42.5945 18.8211 41.9462 18.3998 41.2297 18.1355C40.6477 17.909 39.7747 17.6405 38.1652 17.567ZM29.3903 36.0842C30.5673 36.5742 31.8779 36.6403 33.0982 36.2713C34.3185 35.9023 35.3728 35.1211 36.0811 34.0611C36.7895 33.0011 37.1078 31.7281 36.9818 30.4595C36.8558 29.1908 36.2932 28.0053 35.3902 27.1054C34.8146 26.5301 34.1186 26.0896 33.3523 25.8156C32.586 25.5416 31.7684 25.4409 30.9586 25.5208C30.1487 25.6007 29.3666 25.8591 28.6685 26.2776C27.9705 26.696 27.374 27.264 26.9218 27.9406C26.4697 28.6173 26.1732 29.3858 26.0537 30.1908C25.9341 30.9957 25.9946 31.8172 26.2307 32.5961C26.4668 33.3749 26.8726 34.0917 27.4189 34.6948C27.9653 35.298 28.6386 35.7725 29.3903 36.0842ZM25.5009 25.0009C26.2884 24.2134 27.2233 23.5887 28.2523 23.1625C29.2812 22.7363 30.3841 22.5169 31.4978 22.5169C32.6115 22.5169 33.7144 22.7363 34.7433 23.1625C35.7723 23.5887 36.7072 24.2134 37.4947 25.0009C38.2822 25.7884 38.9069 26.7233 39.3331 27.7523C39.7593 28.7812 39.9787 29.8841 39.9787 30.9978C39.9787 32.1115 39.7593 33.2144 39.3331 34.2433C38.9069 35.2723 38.2822 36.2072 37.4947 36.9947C35.9042 38.5852 33.7471 39.4787 31.4978 39.4787C29.2485 39.4787 27.0914 38.5852 25.5009 36.9947C23.9104 35.4042 23.0169 33.2471 23.0169 30.9978C23.0169 28.7485 23.9104 26.5914 25.5009 25.0009ZM41.8596 23.7799C42.0548 23.5958 42.211 23.3744 42.3191 23.1289C42.4272 22.8833 42.4849 22.6186 42.4888 22.3503C42.4927 22.0821 42.4427 21.8158 42.3419 21.5672C42.241 21.3186 42.0913 21.0927 41.9016 20.903C41.7119 20.7133 41.486 20.5636 41.2374 20.4627C40.9888 20.3619 40.7225 20.3119 40.4543 20.3158C40.186 20.3197 39.9213 20.3774 39.6757 20.4855C39.4302 20.5936 39.2088 20.7498 39.0247 20.945C38.6667 21.3245 38.4706 21.8286 38.4782 22.3503C38.4859 22.872 38.6965 23.3702 39.0654 23.7392C39.4344 24.1081 39.9326 24.3187 40.4543 24.3263C40.976 24.334 41.4801 24.1379 41.8596 23.7799Z" fill="white"/>
<defs>
<filter id="filter0_b_249_6103" x="-75" y="-74.75" width="212.251" height="212.25" filterUnits="userSpaceOnUse" color-interpolation-filters="sRGB">
<feFlood flood-opacity="0" result="BackgroundImageFix"/>
<feGaussianBlur in="BackgroundImageFix" stdDeviation="37.5"/>
<feComposite in2="SourceAlpha" operator="in" result="effect1_backgroundBlur_249_6103"/>
<feBlend mode="normal" in="SourceGraphic" in2="effect1_backgroundBlur_249_6103" result="shape"/>
</filter>
<linearGradient id="paint0_linear_249_6103" x1="15.3752" y1="3.62504" x2="50.2506" y2="59.5007" gradientUnits="userSpaceOnUse">
<stop stop-color="#7042BE"/>
<stop offset="1" stop-color="#DB2F79"/>
</linearGradient>
</defs>
</svg>
