<svg width="63" height="63" viewBox="0 0 63 63" fill="none" xmlns="http://www.w3.org/2000/svg">
<circle cx="31.2468" cy="31.6345" r="31.1326" fill="#34A853"/>
<path d="M17.4975 24.1544C17.4975 27.0684 18.4708 29.171 20.3881 30.4056C21.9602 31.4199 23.7819 31.572 24.7298 31.572C24.96 31.572 25.1453 31.5603 25.274 31.5525C25.274 31.5525 24.9736 33.5108 26.4248 35.4457H26.3585C23.8443 35.4457 15.6445 35.9703 15.6445 42.7151C15.6445 49.5729 23.1753 49.9221 24.6869 49.9221C24.8059 49.9221 24.8761 49.9182 24.8761 49.9182C24.8917 49.9182 24.999 49.9221 25.1843 49.9221C26.1537 49.9221 28.66 49.8012 30.987 48.6679C34.0063 47.2051 35.5374 44.6519 35.5374 41.0903C35.5374 37.6497 33.2046 35.6017 31.5019 34.1037C30.4623 33.189 29.5631 32.401 29.5631 31.6344C29.5631 30.8543 30.2204 30.2672 31.0494 29.524C32.3932 28.3245 33.6611 26.6139 33.6611 23.38C33.6611 20.5382 33.2924 18.6287 31.0201 17.4174C31.2561 17.2965 32.0948 17.2087 32.5083 17.1502C33.7391 16.9825 35.5394 16.7913 35.5394 15.7868V15.5938H26.5691C26.4794 15.5977 17.4975 15.9292 17.4975 24.1544ZM31.9778 41.734C32.1494 44.4764 29.803 46.499 26.2785 46.7545C22.6994 47.0178 19.7542 45.4067 19.5825 42.6663C19.4987 41.3478 20.078 40.0605 21.2112 39.0326C22.36 37.993 23.9379 37.3493 25.6544 37.2226C25.8572 37.2108 26.0581 37.1991 26.259 37.1991C29.5729 37.2011 31.8159 39.1477 31.9778 41.734ZM29.6353 22.2761C30.5149 25.3734 29.1867 28.6073 27.0685 29.2061C26.8246 29.2741 26.5726 29.3082 26.3195 29.3075C24.3807 29.3075 22.4595 27.3454 21.7456 24.64C21.3477 23.1265 21.3809 21.7963 21.8373 20.5206C22.2839 19.2626 23.0914 18.418 24.1057 18.1313C24.3495 18.063 24.6011 18.0279 24.8566 18.0279C27.1972 18.0279 28.7029 18.9993 29.6353 22.2761ZM44.8256 28.857V23.0055H40.9246V28.857H35.0732V32.7579H40.9246V38.6093H44.8256V32.7579H50.677V28.857H44.8256Z" fill="white"/>
</svg>
