<svg width="63" height="63" viewBox="0 0 63 63" fill="none" xmlns="http://www.w3.org/2000/svg">
<circle cx="31.2986" cy="31.6345" r="31.1326" fill="#FF9E00"/>
<path d="M32.8001 16.424C30.5644 16.2613 28.3198 16.5818 26.219 17.3639C24.1181 18.1459 22.2103 19.3712 20.6252 20.9563C19.0401 22.5414 17.8149 24.4492 17.0328 26.55C16.2508 28.6509 15.9302 30.8954 16.093 33.1312C16.6556 41.3988 23.8761 47.6347 32.1594 47.6347H37.9264C38.786 47.6347 39.4893 46.9314 39.4893 46.0718C39.4893 45.2123 38.786 44.509 37.9264 44.509H32.1906C26.3611 44.509 21.016 40.7268 19.5626 35.0848C17.2339 26.0201 25.6734 17.5649 34.7381 19.9092C40.3957 21.3471 44.1779 26.6921 44.1779 32.5217V34.2408C44.1779 35.4755 43.0683 36.6946 41.8336 36.6946C40.5989 36.6946 39.4893 35.4755 39.4893 34.2408V32.2872C39.4893 28.3644 36.7073 24.8323 32.8314 24.2853C31.5982 24.1019 30.3391 24.2158 29.1588 24.6174C27.9785 25.0191 26.9113 25.6968 26.0459 26.5943C25.1805 27.4918 24.5421 28.583 24.1837 29.7772C23.8253 30.9713 23.7574 32.2337 23.9855 33.4594C24.2596 34.9363 24.9539 36.3028 25.9851 37.395C27.0163 38.4872 28.3407 39.2587 29.7994 39.6172C32.6751 40.2892 35.4102 39.3671 37.2075 37.5385C38.5984 39.4452 41.3804 40.4455 43.9278 39.4296C46.0221 38.6013 47.3037 36.4601 47.3037 34.2096V32.5061C47.3037 24.2072 41.0678 16.9867 32.8001 16.424ZM31.6749 36.6946C29.0805 36.6946 26.9862 34.6003 26.9862 32.0059C26.9862 29.4115 29.0805 27.3173 31.6749 27.3173C34.2693 27.3173 36.3635 29.4115 36.3635 32.0059C36.3635 34.6003 34.2693 36.6946 31.6749 36.6946Z" fill="white"/>
</svg>
