<svg width="22" height="22" viewBox="0 0 22 22" fill="none" xmlns="http://www.w3.org/2000/svg">
<path d="M11.5595 17.797C11.7953 17.797 12.0215 17.8907 12.1882 18.0574C12.355 18.2242 12.4487 18.4503 12.4487 18.6861C12.4487 18.922 12.355 19.1481 12.1882 19.3149C12.0215 19.4816 11.7953 19.5753 11.5595 19.5753C11.3237 19.5753 11.0975 19.4816 10.9307 19.3149C10.764 19.1481 10.6703 18.922 10.6703 18.6861C10.6703 18.4503 10.764 18.2242 10.9307 18.0574C11.0975 17.8907 11.3237 17.797 11.5595 17.797V17.797ZM8.44738 16.9078C8.6832 16.9078 8.90937 17.0015 9.07612 17.1682C9.24287 17.335 9.33655 17.5611 9.33655 17.797C9.33655 18.0328 9.24287 18.259 9.07612 18.4257C8.90937 18.5925 8.6832 18.6861 8.44738 18.6861C8.21155 18.6861 7.98539 18.5925 7.81864 18.4257C7.65188 18.259 7.5582 18.0328 7.5582 17.797C7.5582 17.5611 7.65188 17.335 7.81864 17.1682C7.98539 17.0015 8.21155 16.9078 8.44738 16.9078V16.9078ZM14.6716 16.9078C14.9074 16.9078 15.1336 17.0015 15.3003 17.1682C15.4671 17.335 15.5608 17.5611 15.5608 17.797C15.5608 18.0328 15.4671 18.259 15.3003 18.4257C15.1336 18.5925 14.9074 18.6861 14.6716 18.6861C14.4358 18.6861 14.2096 18.5925 14.0429 18.4257C13.8761 18.259 13.7824 18.0328 13.7824 17.797C13.7824 17.5611 13.8761 17.335 14.0429 17.1682C14.2096 17.0015 14.4358 16.9078 14.6716 16.9078ZM11.559 5.33918C14.3764 5.33918 15.9747 7.20378 16.2072 9.45606H16.2783C18.0914 9.45606 19.5612 10.9219 19.5612 12.7304C19.5612 14.539 18.0914 16.0048 16.2783 16.0048H6.83975C5.02672 16.0048 3.55691 14.539 3.55691 12.7304C3.55691 10.9219 5.02672 9.45606 6.83975 9.45606H6.91088C7.14474 7.18911 8.74169 5.33918 11.559 5.33918V5.33918ZM11.559 6.44842C9.66466 6.44842 8.01346 7.98136 8.01346 10.0985C8.01346 10.4342 7.72181 10.6973 7.38748 10.6973H6.75617C5.60291 10.6973 4.66794 11.6372 4.66794 12.7962C4.66794 13.9557 5.60291 14.8956 6.75617 14.8956H16.3619C17.5152 14.8956 18.4502 13.9557 18.4502 12.7962C18.4502 11.6372 17.5152 10.6978 16.3619 10.6978H15.7306C15.3963 10.6978 15.1046 10.4342 15.1046 10.0985C15.1046 7.95424 13.4534 6.44842 11.559 6.44842V6.44842ZM3.87213 9.02614C3.92444 9.15257 3.92803 9.2939 3.88221 9.42281C3.83639 9.55173 3.74441 9.65909 3.62405 9.72415L3.57292 9.7486L2.54503 10.1763C2.41428 10.2295 2.26813 10.2306 2.13654 10.1796C2.00495 10.1285 1.89786 10.029 1.83722 9.90156C1.77659 9.77409 1.76698 9.62826 1.81038 9.49394C1.85378 9.35962 1.9469 9.24697 2.07066 9.17908L2.12179 9.15463L3.14967 8.72694C3.28516 8.67085 3.43737 8.67086 3.57285 8.72697C3.70832 8.78307 3.81597 8.89069 3.87213 9.02614ZM9.65177 4.74032L9.6242 4.74877C9.2134 4.88303 8.83106 5.06087 8.48161 5.27782C8.00414 5.07579 7.4748 5.03075 6.97006 5.14921C6.46531 5.26766 6.01128 5.54349 5.67354 5.93685C5.33579 6.3302 5.13182 6.82073 5.09107 7.33759C5.05033 7.85445 5.17492 8.37088 5.44686 8.8123C5.11231 8.93185 4.79461 9.09413 4.50166 9.29512C4.09261 8.59457 3.93925 7.77381 4.06774 6.97283C4.19623 6.17184 4.5986 5.44023 5.20625 4.90277C5.81389 4.36531 6.58916 4.05529 7.39985 4.02559C8.21053 3.99588 9.00642 4.24833 9.65177 4.73987V4.74032ZM2.48101 4.8199L2.53747 4.84035L3.56892 5.28005C3.84856 5.39831 3.98283 5.72241 3.86857 6.00384C3.76187 6.26703 3.476 6.39952 3.21058 6.31994L3.15456 6.29993L2.12356 5.85979C1.98886 5.80232 1.88201 5.69438 1.82592 5.55909C1.76983 5.4238 1.76895 5.27193 1.82347 5.136C1.93017 4.87325 2.21604 4.74032 2.48146 4.8199H2.48101ZM5.75718 2.07502L5.78163 2.12659L6.20843 3.15181C6.26309 3.28347 6.26506 3.4311 6.21394 3.56417C6.16282 3.69724 6.06252 3.80558 5.93377 3.86678C5.80502 3.92799 5.65768 3.93738 5.52221 3.89301C5.38673 3.84864 5.27349 3.75391 5.20589 3.6284L5.18144 3.57728L4.75463 2.55206C4.69933 2.4203 4.69691 2.2723 4.74787 2.1388C4.79883 2.0053 4.89925 1.89656 5.02828 1.83516C5.15731 1.77377 5.30504 1.76443 5.44077 1.8091C5.5765 1.85376 5.68982 1.94899 5.75718 2.07502V2.07502ZM9.77981 1.82605C10.0474 1.93719 10.1839 2.23062 10.1044 2.50226L10.0839 2.56006L9.64287 3.57194C9.58701 3.70342 9.48317 3.80869 9.35246 3.86635C9.22175 3.924 9.07399 3.92972 8.93923 3.88232C8.80446 3.83493 8.6928 3.73798 8.62696 3.6112C8.56111 3.48443 8.54602 3.33733 8.58476 3.19982L8.60521 3.14203L9.04579 2.13014C9.10284 1.99251 9.2122 1.88316 9.34984 1.82613C9.48749 1.76911 9.64214 1.76908 9.77981 1.82605V1.82605Z" fill="#E4E4E4"/>
</svg>
