<svg width="832" height="214" viewBox="0 0 832 214" fill="none" xmlns="http://www.w3.org/2000/svg">
<path opacity="0.1" fill-rule="evenodd" clip-rule="evenodd" d="M392.136 158.944C397.027 156.595 401.243 154.916 401.503 155.212C401.762 155.508 404.334 159.124 407.215 163.247L412.454 170.744L425.045 169.781L437.635 168.818L437.635 178.506L437.635 188.193L447.11 192.556L456.586 196.92L450.995 204.364C447.922 208.457 445.406 212.323 445.406 212.956C445.406 216.689 451.1 210.606 465.435 191.559C481.145 170.685 481.812 170.059 488.838 169.575L496.071 169.079L479.615 191.061C470.109 203.76 464.085 213.314 465.355 213.682C466.564 214.032 467.846 213.596 468.205 212.714C468.565 211.831 470.02 209.808 471.438 208.218C473.897 205.463 474.433 205.527 482.884 209.584C493.672 214.764 502.293 215.52 492.03 210.386C488.291 208.516 483.286 206.017 480.908 204.831C477.128 202.95 476.866 202.17 478.826 198.648C481.476 193.883 480.959 193.756 504.77 205.019C519.482 211.978 524.951 213.76 531.004 213.564C535.401 213.424 538.655 212.523 538.655 211.449C538.655 209.891 546.416 205.883 549.431 205.883C549.914 205.883 550.311 207.674 550.311 209.862C550.311 212.051 551.185 213.841 552.253 213.841C553.322 213.841 554.196 211.366 554.196 208.341C554.196 203.206 555.109 202.404 567.945 196.263C575.507 192.643 581.961 189.927 582.287 190.224C582.614 190.52 586.054 195.957 589.932 202.302C593.811 208.65 598.241 213.841 599.775 213.841C601.31 213.841 606.144 208.207 610.517 201.322C622.087 183.102 622.208 182.994 627.612 186.094L632.063 188.649L624.212 200.571C615.645 213.582 615.527 213.841 618.169 213.841C619.161 213.841 623.608 208.449 628.049 201.858L636.123 189.877L642.27 192.884C645.65 194.537 651.258 197.219 654.73 198.842C660.105 201.357 661.044 202.689 661.044 207.819C661.044 212.176 661.869 213.841 664.03 213.841C666.606 213.841 666.94 210.664 666.458 190.762L665.901 167.681L671.729 167.681L677.557 167.681L676.974 190.573L676.391 213.464L684.745 213.545C692.445 213.62 692.803 213.448 689.327 211.346C687.253 210.093 684.849 209.067 683.985 209.067C683.12 209.067 682.413 206.56 682.413 203.496C682.413 200.432 682.907 197.926 683.513 197.926C684.117 197.926 692.01 201.507 701.055 205.883C710.1 210.26 719.285 213.841 721.467 213.841C723.647 213.841 729.209 212.027 733.826 209.811L742.221 205.78L746.157 210.206C750.819 215.45 754.164 214.113 749.634 208.815C745.537 204.021 745.655 203.534 751.456 201.37C756.094 199.638 756.711 199.958 761.655 206.633C764.552 210.542 768.113 213.763 769.572 213.79C771.678 213.83 771.579 213.023 769.086 209.862C767.361 207.674 764.519 204.071 762.772 201.855C761.024 199.64 759.932 197.619 760.344 197.364C760.756 197.109 765.245 194.953 770.32 192.572L779.548 188.243L779.544 179.158L779.54 170.073L790.638 170.073C801.543 170.073 801.817 169.962 806.234 163.707C808.709 160.206 811.417 156.42 812.255 155.294C813.428 153.717 815.928 154.233 823.155 157.542C829.309 160.36 832.223 161.064 831.629 159.588C831.132 158.353 819.217 151.97 805.154 145.404C780.348 133.824 779.584 133.309 779.567 128.125C779.544 121.622 778.277 121.289 808.503 135.702C822.106 142.189 832 146.033 832 144.833C832 143.692 829.851 141.817 827.227 140.666L822.456 138.573L827.38 131.688C830.088 127.902 831.969 123.53 831.559 121.974C831.048 120.046 828.983 122.052 825.082 128.265L819.353 137.385L814.207 134.618L809.061 131.854L820.453 115.154C826.718 105.969 831.876 96.6631 831.913 94.4747C831.949 92.2863 829.826 87.631 827.194 84.1296C821.164 76.1081 821.158 74.8174 827.143 72.1929C829.814 71.0215 832 69.1339 832 67.9992C832 66.5206 830.158 66.8246 825.515 69.0687L819.031 72.2024L816.629 67.8862C813.995 63.1497 814.219 62.9046 826.026 57.5458C829.311 56.0545 832 54.0158 832 53.0163C832 52.0168 827.338 53.3553 821.638 55.9893L811.277 60.7799L805.993 51.9531L800.709 43.1264L790.127 44.145L779.548 45.1635L779.548 35.7002L779.548 26.2368L769.834 21.9046C764.492 19.5236 760.121 17.1315 760.121 16.5904C760.121 16.0477 761.298 14.1919 762.737 12.4667C771.252 2.2473 772.218 0.572966 769.572 0.617522C768.113 0.641402 759.489 10.6666 750.407 22.8945C734.631 44.1386 733.613 45.1285 727.581 45.1333C724.109 45.1349 721.267 44.7131 721.267 44.1943C721.267 43.677 728.327 33.9431 736.956 22.5635C745.584 11.1855 752.07 1.40375 751.367 0.829192C750.666 0.253051 748.332 1.76028 746.184 4.17625L742.277 8.56894L732.911 4.39268C727.759 2.09607 722.444 0.517273 721.1 0.883332C719.756 1.25098 723.625 3.84998 729.7 6.65747C740.702 11.7457 740.731 11.7791 737.591 15.7039C735.859 17.8716 733.881 19.3979 733.197 19.0971C732.511 18.7963 723.21 14.5723 712.525 9.71007C697.164 2.71997 691.348 0.883318 684.735 0.939013C678.701 0.98836 676.642 1.58202 677.341 3.07331C677.887 4.23831 675.575 6.46012 672.045 8.16626L665.784 11.1934L666.54 5.88399C667.138 1.68706 666.598 0.57297 663.966 0.572971C661.263 0.572971 660.772 1.74912 661.362 6.81186C662.079 12.9728 661.937 13.1224 649.996 18.7485C643.346 21.8823 637.151 24.4463 636.228 24.4463C635.307 24.4463 631.117 19.0828 626.915 12.5271C622.713 5.97153 618.26 0.600026 617.019 0.590474C615.777 0.580938 610.472 7.15406 605.229 15.1994C599.985 23.2431 594.845 30.0565 593.807 30.3398C592.77 30.6231 590.283 29.8735 588.281 28.6751C584.797 26.5869 584.988 25.9678 592.731 14.2078C601.549 0.814901 601.66 0.572973 599.014 0.572973C598.021 0.572973 593.588 5.94448 589.164 12.5096C584.741 19.0748 580.706 24.4463 580.201 24.4463C579.694 24.4463 573.635 21.7868 566.738 18.5369C554.789 12.9059 554.196 12.3425 554.196 6.6002C554.196 3.28498 553.322 0.572975 552.253 0.572975C551.047 0.572975 550.311 9.32653 550.311 23.6505L550.311 46.7281L544.483 46.7281L538.655 46.7281L538.655 23.6505C538.655 9.32653 537.918 0.572976 536.712 0.572976C535.644 0.572976 534.769 1.3767 534.769 2.35868C534.769 3.6192 533.94 3.581 531.949 2.22817C530.396 1.17298 527.556 0.584115 525.635 0.919931C522.884 1.399 523.484 2.11361 528.456 4.27494C533.755 6.57951 534.769 7.92437 534.769 12.6433L534.769 18.2647L522.628 12.5192C515.951 9.35836 506.804 5.24897 502.305 3.38685L494.124 1.04014e-05L484.034 4.49934L473.942 8.99867L470.196 4.78582C464.776 -1.30982 461.81 -0.394687 466.387 5.96199L470.268 11.3494L465.517 13.124C459.15 15.4986 459.826 15.8153 454.045 7.73497C451.228 3.79588 447.667 0.57298 446.132 0.57298C444.188 0.57298 445.346 3.13537 449.954 9.03845L456.565 17.5039L447.1 21.8632L437.635 26.2209L437.635 35.8418L437.635 45.4628L424.609 44.901L411.584 44.3407L407.16 50.7069C404.726 54.2084 402.441 57.7543 402.084 58.5883C401.727 59.4223 397.34 58.1379 392.338 55.7363C386.385 52.8778 383.25 52.0789 383.271 53.4253C383.287 54.5569 395.525 61.1666 410.469 68.1154C436.823 80.3719 437.635 80.9083 437.635 86.0204C437.635 88.9202 437.278 91.2916 436.841 91.2916C436.403 91.2916 424.637 85.9201 410.69 79.3549C396.746 72.7898 384.864 67.4183 384.287 67.4183C381.346 67.4183 383.832 70.891 387.848 72.3903L392.458 74.1107L387.7 81.0833C385.084 84.919 383.29 89.3212 383.714 90.8682C384.239 92.7797 386.241 90.8157 389.971 84.7344C395.444 75.8121 395.471 75.7946 400.549 78.1819L405.639 80.5756L394.309 98.7416C388.077 108.733 383.333 117.769 383.766 118.822C384.202 119.874 386.08 118.329 387.943 115.389L391.329 110.043L405.575 132.896L419.823 155.75L428.728 156.235C437.159 156.693 437.635 156.97 437.635 161.407L437.635 166.095L425.216 166.095C415.178 166.095 412.547 165.561 411.498 163.309C407.481 154.688 384.369 121.146 383.654 122.901C383.188 124.049 385.068 128.395 387.834 132.559L392.864 140.132L388.052 142.24C382.896 144.502 381.297 147.981 386.154 146.37C387.757 145.839 390.311 144.991 391.832 144.484C393.466 143.942 395.51 144.962 396.825 146.974C399.524 151.107 397.394 153.72 389.004 156.568C385.833 157.643 383.24 159.579 383.24 160.868C383.24 162.655 385.361 162.195 392.136 158.944ZM410.068 83.3656C410.807 83.3815 417.091 86.1031 424.036 89.4135L436.664 95.4312L437.196 107.287L437.728 119.144L423.947 125.266C416.367 128.634 409.721 131.025 409.177 130.579C408.633 130.133 404.901 124.651 400.883 118.394L393.579 107.021L401.153 95.1782C405.321 88.6639 409.332 83.3481 410.068 83.3656ZM446.535 48.5122L479.768 48.9483L483.659 53.8057L487.55 58.6647L453.985 58.165C420.59 57.6684 420.407 57.6843 418.08 61.3481C416.792 63.3741 415.533 65.2363 415.283 65.4877C415.03 65.7408 412.592 65.1121 409.863 64.0935L404.899 62.2409L409.099 55.1585L413.299 48.0761L446.535 48.5122ZM439.603 121.625C465.466 109.273 465.872 109.146 471.127 111.676C474.189 113.152 475.725 114.835 474.742 115.641C473.802 116.411 460.479 122.973 445.136 130.223C417.913 143.087 417.181 143.324 414.882 140.028C413.587 138.171 412.724 136.086 412.965 135.394C413.206 134.703 425.192 128.507 439.603 121.625ZM428.407 141.642L437.635 137.313L437.635 145.338L437.635 153.362L430.162 153.362C424.299 153.362 422.257 152.59 420.689 149.781C419.59 147.812 418.801 146.149 418.935 146.086C419.069 146.022 423.331 144.023 428.407 141.642ZM430.177 61.052L437.635 61.052L437.635 69.0098L437.635 76.966L428.161 72.6338C419.537 68.6883 418.867 67.9737 420.703 64.676C422.29 61.8208 424.301 61.052 430.177 61.052ZM446.309 133.651C448.942 132.237 451.564 131.08 452.137 131.08C452.708 131.08 453.177 142.215 453.177 155.824L453.177 180.567L458.857 183.237C464.363 185.825 464.442 186.038 461.484 190.143L458.43 194.38L449.975 190.196L441.52 186.013L441.52 161.116C441.52 136.412 441.557 136.202 446.309 133.651ZM447.349 61.052L453.177 61.052L453.177 86.1731L453.177 111.296L447.349 114.116L441.52 116.936L441.52 88.995L441.52 61.052L447.349 61.052ZM467.525 16.0604C481.829 9.29312 494.286 3.772 495.209 3.7911C496.131 3.81021 498.816 5.06434 501.176 6.57632C505.427 9.30265 505.239 9.43316 479.807 21.4669C454.913 33.246 454.13 33.7808 453.546 39.3719C453 44.5779 452.388 45.1365 447.232 45.1365C441.635 45.1365 441.52 44.9694 441.52 36.7506L441.52 28.3631L467.525 16.0604ZM466.775 169.278C472.118 169.278 476.489 169.65 476.489 170.105C476.489 170.561 474.286 173.791 471.595 177.283C466.787 183.524 466.616 183.591 461.882 181.047C458.595 179.284 457.062 177.002 457.062 173.869C457.062 169.421 457.363 169.278 466.775 169.278ZM477.763 155.991C489.147 155.42 506.631 154.954 516.617 154.954L534.769 154.954L534.769 159.728L534.769 164.503L506.115 164.517C490.356 164.524 472.872 164.982 467.261 165.534L457.062 166.539L457.062 161.783L457.062 157.029L477.763 155.991ZM469.489 122.359L481.919 116.666L494.259 122.519C501.046 125.739 506.837 128.52 507.125 128.698C507.414 128.878 503.918 134.116 499.354 140.34L491.059 151.658L478.431 151.736C471.486 151.779 463.836 152.246 461.433 152.773C457.165 153.711 457.062 153.432 457.062 140.894L457.062 128.053L469.489 122.359ZM459.005 105.616C460.073 105.616 460.947 106.332 460.947 107.207C460.947 108.082 460.073 108.799 459.005 108.799C457.936 108.799 457.062 108.082 457.062 107.207C457.062 106.332 457.936 105.616 459.005 105.616ZM485.717 103.543C501.476 111.04 514.707 117.415 515.119 117.711C515.531 118.007 514.462 120.006 512.745 122.155L509.621 126.061L483.393 113.849C457.212 101.657 457.167 101.627 457.114 95.775L457.062 89.9133L485.717 103.543ZM473.089 62.2505C491.04 63.0017 492.201 63.6415 502.138 78.2201L507.389 85.9248L494.75 91.8805L482.109 97.836L469.586 92.0985L457.062 86.3609L457.062 73.9691L457.062 61.5789L473.089 62.2505ZM460.819 34.0513C466.622 31.508 467.687 31.9425 472.37 38.7703L476.737 45.1365L466.9 45.1365C457.289 45.1365 457.062 45.0267 457.062 40.4176C457.062 37.3809 458.402 35.1113 460.819 34.0513ZM479.288 26.0554C481.386 26.0729 487.016 33.0311 508.864 62.5974L521.176 79.2626L516.145 81.4223C513.378 82.6112 510.865 83.3481 510.56 83.0601C510.255 82.7736 501.128 70.7271 490.276 56.2901C472.341 32.4279 470.851 29.8592 473.889 28.04C475.727 26.9387 478.158 26.0458 479.288 26.0554ZM494.494 177.633L502.091 167.686L518.431 167.686L534.769 167.686L534.769 180.304L534.769 192.92L523.16 198.699L511.548 204.477L497.858 197.926C489.027 193.7 484.652 190.702 485.532 189.478C486.282 188.435 490.315 183.104 494.494 177.633ZM498.441 16.4519L510.462 10.7573L522.598 16.4089L534.732 22.059L534.752 34.4556L534.769 46.8522L517.938 46.3922L501.106 45.9323L492.726 34.8885C488.118 28.8151 484.813 23.4627 485.382 22.9948C485.954 22.5285 491.828 19.5841 498.441 16.4519ZM512.428 87.1663C537.8 75.201 538.655 74.6264 538.655 69.5175C538.655 64.6887 539.164 64.2351 544.584 64.2351C550.509 64.2351 550.513 64.2431 549.926 72.4842L549.339 80.7332L523.397 93.1664L497.454 105.6L491.828 102.878C488.734 101.38 486.202 100.015 486.202 99.8446C486.202 99.6743 498.004 93.9686 512.428 87.1663ZM514.354 126.433L529.052 107.029L525.04 102.415L521.029 97.7994L526.546 95.463C532.013 93.1457 532.108 93.1887 537.264 100.18L542.466 107.236L525.812 129.503C509.6 151.18 508.98 151.771 502.468 151.771C494.554 151.771 493.567 153.873 514.354 126.433ZM513.615 101.589C518.332 99.5501 518.837 99.6695 520.858 103.301C522.447 106.16 522.455 108.242 520.883 111.068L518.736 114.928L510.138 111.506C500.772 107.778 501.037 107.026 513.615 101.589ZM535.587 50.6305L567.488 51.7749L570.938 47.2612C572.836 44.78 574.542 42.5438 574.726 42.2924C574.913 42.0393 577.316 42.6744 580.069 43.7025L585.075 45.571L580.215 53.4317L575.352 61.2908L543.89 60.2292C512.932 59.182 512.359 59.0976 508.067 54.9357C505.668 52.6104 503.702 50.4316 503.696 50.0958C503.69 49.76 518.041 50.0003 535.587 50.6305ZM524.238 137.786C524.411 137.533 526.896 138.201 529.757 139.271C534.002 140.854 534.855 142.113 534.381 146.094C533.819 150.797 533.421 150.992 523.502 151.459L513.206 151.943L518.563 145.092C521.512 141.325 524.065 138.037 524.238 137.786ZM524.085 62.6436L534.769 62.6436L534.769 67.9578C534.769 72.177 533.697 73.6747 529.569 75.2153C525.394 76.7734 524.067 76.7448 522.847 75.072C522.01 73.9261 519.607 70.8401 517.505 68.214C515.403 65.588 513.619 63.2611 513.542 63.0415C513.464 62.8218 518.208 62.6436 524.085 62.6436ZM546.082 191.563C561.386 184.394 574.163 178.776 574.474 179.077C577.907 182.392 579.101 186.619 576.982 187.951C571.556 191.361 529.439 210.658 527.424 210.658C523.35 210.658 515.228 206.932 516.747 205.759C517.577 205.118 530.779 198.729 546.082 191.563ZM532.446 127.294C533.293 126.864 537.441 128.101 541.664 130.04L549.339 133.565L549.848 159.778L550.357 185.989L544.506 188.699L538.655 191.411L538.655 165.568L538.655 139.724L532.819 136.901C527.989 134.563 527.321 133.558 528.945 131.076C530.023 129.425 531.599 127.724 532.446 127.294ZM546.425 107.63C546.425 106.865 543.84 102.899 540.681 98.818L534.936 91.3982L544.564 86.9673L554.192 82.538L554.194 73.463L554.196 64.3863L566.285 63.9136C578.151 63.4473 578.454 63.3216 582.763 57.0732C585.178 53.5717 587.437 50.0496 587.783 49.2459C588.127 48.4422 592.951 49.8093 598.501 52.2842L608.591 56.7835L618.231 52.4847L627.871 48.1875L632.834 56.2105L637.798 64.2351L649.421 64.2351L661.044 64.2351L661.044 72.7356L661.044 81.2361L670.757 85.5667C676.1 87.9493 680.471 90.3112 680.471 90.8173C680.471 91.3218 677.803 95.2864 674.544 99.6265C668.109 108.195 667.872 106.598 677.349 118.604L680.69 122.838L670.868 127.358L661.048 131.876L661.046 140.948L661.044 150.02L649.873 150.497L638.703 150.975L633.287 159.254L627.872 167.533L618.231 162.876L608.591 158.22L599.039 162.834L589.489 167.447L583.983 158.816L578.48 150.187L566.338 150.182L554.196 150.179L554.169 141.028L554.14 131.876L544.388 127.469L534.633 123.062L540.529 116.042C543.772 112.181 546.425 108.394 546.425 107.63ZM559.381 166.68C563.41 165.853 565.372 166.43 568.187 169.279C572.928 174.076 572.049 175.698 562.311 180.14L554.196 183.84L554.196 175.794C554.196 168.402 554.618 167.661 559.381 166.68ZM564.696 153.362C576.72 153.362 574.862 151.543 595.577 183.602L606.377 200.313L603.076 205.466L599.775 210.618L584.271 186.777L568.766 162.934L561.481 162.923C554.686 162.911 554.196 162.592 554.196 158.137C554.196 153.421 554.324 153.362 564.696 153.362ZM555.653 32.4534C556.454 32.4805 560.298 34.1102 564.193 36.0742C571.055 39.5326 571.191 39.7793 568.502 43.981C565.72 48.3323 562.991 49.152 557.269 47.3535C555.113 46.6755 554.196 44.3025 554.196 39.3958C554.196 35.5506 554.853 32.4263 555.653 32.4534ZM560.51 19.3295C563.981 21.0356 576.168 26.8639 587.591 32.2831C607.975 41.9534 608.463 42.0887 614.11 39.6966C619.604 37.3697 620.003 37.4318 622.915 41.0733C625.897 44.8023 625.77 44.9805 617.192 49.0995L608.416 53.3123L599.276 48.9833C552.263 26.7159 554.196 27.8793 554.196 21.8361L554.196 16.2291L560.51 19.3295ZM608.721 162.911C609.642 162.911 618.515 166.76 628.436 171.463C663.276 187.982 661.044 186.535 661.044 192.607C661.044 195.635 660.387 197.805 659.587 197.426C658.786 197.049 647.379 191.634 634.239 185.395C621.098 179.156 609.271 174.052 607.958 174.052C606.645 174.052 603.667 175.144 601.341 176.479C597.368 178.759 596.939 178.639 594.309 174.525C591.562 170.233 591.665 170.069 599.276 166.528C603.548 164.538 607.799 162.911 608.721 162.911ZM607.634 18.47C607.814 18.2472 610.32 21.6133 613.201 25.9503L618.441 33.8349L613.205 36.0821C608.648 38.0398 607.297 38.0143 602.777 35.888L597.584 33.4465L602.445 26.1604C605.118 22.1545 607.453 18.6928 607.634 18.47ZM603.735 179.117C607.367 177.761 609.815 177.761 613.448 179.117C619.266 181.289 619.262 181.031 613.652 189.818L609.174 196.832L604.043 189.818C601.223 185.962 598.907 182.384 598.895 181.868C598.886 181.351 601.063 180.113 603.735 179.117ZM613.619 9.85174L616.704 4.96566L620.061 9.53342C621.906 12.0449 628.883 22.5157 635.562 32.8019C647.451 51.1112 647.845 51.5027 654.375 51.5027C660.49 51.5027 661.044 51.899 661.044 56.2774C661.044 60.9788 660.888 61.052 650.845 61.0282L640.646 61.0043L625.671 38.3485C617.434 25.8882 610.66 15.4779 610.616 15.2153C610.571 14.9543 611.923 12.5399 613.619 9.85174ZM651.975 153.938C657.498 154.481 671.631 154.936 683.385 154.951L704.754 154.974L708.23 159.977L711.705 164.977L680.405 164.051L649.102 163.125L645.203 168.541C641.44 173.764 641.137 173.868 636.663 171.466L632.024 168.977L636.982 160.963L641.937 152.95L651.975 153.938ZM663.651 16.0429C677.906 9.28514 690.363 3.77199 691.334 3.79109C692.304 3.8102 695.041 5.06433 697.415 6.57631C701.693 9.30264 701.471 9.44908 672.214 23.2303C642.926 37.0259 642.678 37.1071 640.282 33.5754C638.955 31.6178 637.838 29.6379 637.8 29.1732C637.763 28.7101 649.395 22.8006 663.651 16.0429ZM655.529 167.686C660.77 167.686 661.044 168.041 661.044 174.848C661.044 178.787 660.387 182.007 659.587 182.004C658.786 182.001 655.299 180.584 651.839 178.856C646.097 175.988 645.743 175.362 647.779 171.7C649.403 168.781 651.517 167.686 655.529 167.686ZM653.273 35.7782L661.044 32.2004L661.044 39.4642C661.044 44.6733 660.265 46.728 658.289 46.728C656.774 46.728 654.301 47.1164 652.793 47.5891C651.173 48.0984 649.176 46.9588 647.909 44.8039C644.834 39.5724 644.758 39.6982 653.273 35.7782ZM671.729 27.1519L677.557 24.8712L676.976 49.3175L676.395 73.7622L683.056 76.3644C689.663 78.9443 689.693 79.0032 686.602 83.415L683.486 87.8634L675.664 84.05L667.843 80.235L666.872 64.676C666.338 56.1166 665.901 44.6861 665.901 39.2732C665.901 29.9053 666.18 29.3212 671.729 27.1519ZM692.939 120.723L719.004 108.582L725.182 111.199L731.357 113.815L703.971 126.607L676.585 139.399L676.585 145.755C676.585 150.897 675.999 151.927 673.512 151.145C671.822 150.614 669.636 150.179 668.655 150.179C667.674 150.179 666.872 146.283 666.872 141.521L666.872 132.865L692.939 120.723ZM690.67 84.1916L706.697 62.6706L714.114 62.6579L721.531 62.6436L717.77 67.0204C710.65 75.3044 688.241 105.983 688.241 107.446C688.241 108.251 689.615 110.627 691.291 112.725C694.209 116.373 694.106 116.639 688.894 118.876C683.567 121.163 683.354 121.087 679.227 115.405C676.908 112.209 674.926 108.721 674.825 107.654C674.724 106.586 681.856 96.028 690.67 84.1916ZM694.555 167.708C712.579 167.74 714.543 168.566 723.173 179.761C727.466 185.332 730.98 190.471 730.98 191.181C730.98 191.892 725.286 195.156 718.326 198.437L705.669 204.399L696.471 200.093C682.031 193.334 682.413 193.875 682.413 180.224L682.413 167.686L694.555 167.708ZM686.507 138.947C691.05 136.955 691.583 137.278 697.803 145.802L702.157 151.771L692.286 151.771L682.413 151.771L682.413 146.256C682.413 142.277 683.554 140.241 686.507 138.947ZM692.286 62.6436L702.157 62.6436L697.803 68.6119C691.596 77.1172 691.447 77.1967 686.705 74.4752C683.931 72.8836 682.413 70.3563 682.413 67.3275C682.413 62.7582 682.654 62.6436 692.286 62.6436ZM700.566 49.9111C710.551 49.9111 728.035 49.4448 739.419 48.8735L760.121 47.8358L760.121 52.6057L760.121 57.3755L733.587 58.418C718.994 58.991 701.51 59.4605 694.734 59.4605L682.413 59.4605L682.413 54.6858L682.413 49.9112L700.566 49.9111ZM694.423 16.3326L706.353 10.6077L718.648 16.3326C725.411 19.4822 730.953 22.6494 730.963 23.372C730.973 24.0945 727.064 29.6443 722.277 35.7065L713.574 46.728L697.994 46.728L682.413 46.728L682.454 34.3935L682.493 22.059L694.423 16.3326ZM695.692 102.362L699.256 98.756L707.249 102.66L715.243 106.566L706.464 110.467C697.838 114.301 697.636 114.315 694.905 111.28C691.346 107.322 691.4 106.703 695.692 102.362ZM703.023 131.131C705.084 131.082 744.579 182.243 744.579 184.961C744.579 185.683 742.479 187.057 739.915 188.015C735.404 189.699 734.572 188.852 714.86 162.463C696.624 138.051 694.808 134.959 697.669 133.176C699.429 132.078 701.838 131.158 703.023 131.131ZM707.035 88.1085C707.509 88.1085 719.641 93.6582 733.994 100.443C759.037 112.279 760.092 112.986 760.105 117.95C760.113 120.796 759.713 123.123 759.213 123.123C758.712 123.123 745.209 116.952 729.203 109.411L700.101 95.7002L703.136 91.9043C704.807 89.8162 706.561 88.1085 707.035 88.1085ZM724.667 120.594L734.866 115.961L745.065 120.575C760.534 127.571 760.121 127.014 760.121 140.824L760.121 153.362L750.893 153.244C745.817 153.179 737.922 152.643 733.345 152.051C725.619 151.051 724.418 150.184 716.511 139.89C706.914 127.396 706.254 128.957 724.667 120.594ZM737.24 193.251C762.458 181.331 763.048 180.926 763.637 175.168C764.185 169.824 764.77 169.278 769.951 169.278C775.561 169.278 775.662 169.429 775.662 177.81L775.662 186.344L748.752 198.994C722.112 211.514 721.778 211.618 715.746 209.278C712.393 207.976 710.054 206.582 710.547 206.178C711.039 205.774 723.05 199.956 737.24 193.251ZM723.21 66.0113C725.487 63.6717 729.84 62.7836 743.122 61.9513L760.121 60.8865L760.121 72.7102C760.121 85.7307 760.466 85.2818 745.065 92.2481L734.866 96.862L724.667 92.2481C708.614 84.9874 708.964 85.5445 714.969 76.7814C717.898 72.5049 721.607 67.6586 723.21 66.0113ZM796.084 151.732C799.476 146.359 800.363 146.154 805.756 149.491C809.589 151.866 809.579 151.952 804.606 159.133C801.846 163.118 799.011 166.316 798.31 166.236C797.607 166.158 783.262 166.093 766.434 166.091L735.837 166.088L732.845 161.715L729.856 157.341L761.475 156.905L793.096 156.469L796.084 151.732ZM749.436 169.278C759.919 169.278 760.121 169.365 760.121 173.869C760.121 177.052 758.578 179.289 755.095 181.159C752.332 182.642 749.572 183.447 748.962 182.948C747.812 182.005 738.918 170.377 738.811 169.676C738.778 169.458 743.559 169.278 749.436 169.278ZM798.427 74.7856C799.796 76.3198 800.913 78.3347 800.911 79.261C800.907 80.1889 789.607 86.1859 775.802 92.5887L750.699 104.229L744.569 101.633L738.44 99.0361L767.188 85.5158C793.646 73.0715 796.134 72.2168 798.427 74.7856ZM746.602 34.5129C749.034 31.2932 749.601 31.212 754.67 33.359C758.788 35.1049 760.121 36.8254 760.121 40.4032C760.121 45.0919 760.016 45.1365 749.212 45.1365C738.353 45.1365 738.318 45.1206 741.145 41.5555C742.706 39.5867 745.162 36.4164 746.602 34.5129ZM754.586 23.7571L756.824 19.7353L766.242 23.9354L775.662 28.1355L775.651 52.9494L775.637 77.7633L769.822 80.4738L764.006 83.1858L764.006 58.6806L764.006 34.1755L758.178 31.3552C754.973 29.8035 752.35 28.3647 752.35 28.1562C752.35 27.9493 753.356 25.9694 754.586 23.7571ZM757.207 105.039C758.965 104.487 760.121 105.031 760.121 106.411C760.121 107.791 758.965 108.336 757.207 107.783C755.604 107.279 754.293 106.661 754.293 106.411C754.293 106.161 755.604 105.544 757.207 105.039ZM768.954 99.5056C771.676 98.4886 774.298 97.6578 774.782 97.6578C775.266 97.6578 775.662 110.191 775.662 125.51L775.662 153.362L769.834 153.362L764.006 153.362L764.006 127.358L764.006 101.352L768.954 99.5056ZM787.318 140.63C791.592 142.415 795.062 144.758 795.027 145.834C794.908 149.614 789.752 153.362 784.676 153.362C779.814 153.362 779.548 152.947 779.548 145.373L779.548 137.381L787.318 140.63ZM791.513 89.0077C805.018 82.4155 803.443 81.7932 813.409 97.661L819.907 108.009L812.841 119.419L805.774 130.829L792.661 124.512L779.548 118.195L779.548 106.521L779.548 94.8471L791.513 89.0077ZM784.181 61.052C786.967 61.052 790.071 62.6229 791.965 64.9927C795.071 68.8761 795.005 68.9796 787.332 72.1866L779.548 75.4413L779.548 68.2458C779.548 61.7252 779.981 61.052 784.181 61.052ZM789.385 48.6347L799.221 49.1154L814.327 71.5977L829.434 94.0815L826.151 99.2828L822.867 104.484L815.023 92.7144C810.708 86.2416 803.802 75.7659 799.678 69.4347C792.738 58.7872 791.701 57.9214 785.861 57.896C780.125 57.8721 779.548 57.4249 779.548 53.0115C779.548 48.1716 779.584 48.1557 789.385 48.6347Z" fill="white"/>
<path opacity="0.1" fill-rule="evenodd" clip-rule="evenodd" d="M-56.8645 158.944C-51.9728 156.595 -47.7572 154.916 -47.4969 155.212C-47.2385 155.508 -44.6664 159.124 -41.7854 163.247L-36.546 170.744L-23.9554 169.781L-11.3649 168.818L-11.3649 178.506L-11.3649 188.193L-1.8904 192.556L7.58601 196.92L1.99496 204.364C-1.07836 208.457 -3.59414 212.323 -3.59414 212.956C-3.59414 216.689 2.09987 210.606 16.4349 191.559C32.1454 170.685 32.8118 170.059 39.8384 169.575L47.0711 169.079L30.6146 191.061C21.109 203.76 15.0848 213.314 16.3553 213.682C17.5636 214.032 18.8458 213.596 19.2052 212.714C19.5646 211.831 21.0197 209.808 22.4378 208.218C24.8973 205.463 25.4334 205.527 33.8841 209.584C44.6719 214.764 53.2935 215.52 43.0303 210.386C39.2906 208.516 34.2863 206.017 31.9084 204.831C28.128 202.95 27.8657 202.17 29.8259 198.648C32.4757 193.883 31.9589 193.756 55.7704 205.019C70.4823 211.978 75.951 213.76 82.0044 213.564C86.4007 213.424 89.6547 212.523 89.6547 211.449C89.6547 209.891 97.4157 205.883 100.431 205.883C100.914 205.883 101.311 207.674 101.311 209.862C101.311 212.051 102.185 213.841 103.253 213.841C104.322 213.841 105.196 211.366 105.196 208.341C105.196 203.206 106.109 202.404 118.945 196.263C126.507 192.643 132.961 189.927 133.287 190.224C133.614 190.52 137.054 195.957 140.932 202.302C144.811 208.65 149.241 213.841 150.775 213.841C152.31 213.841 157.144 208.207 161.517 201.322C173.087 183.102 173.208 182.994 178.612 186.094L183.063 188.649L175.212 200.571C166.645 213.582 166.527 213.841 169.169 213.841C170.161 213.841 174.608 208.449 179.049 201.858L187.123 189.877L193.27 192.884C196.65 194.537 202.258 197.219 205.73 198.842C211.105 201.357 212.044 202.689 212.044 207.819C212.044 212.176 212.869 213.841 215.03 213.841C217.606 213.841 217.94 210.664 217.458 190.762L216.901 167.681L222.729 167.681L228.557 167.681L227.974 190.573L227.391 213.464L235.745 213.545C243.445 213.62 243.803 213.448 240.327 211.346C238.253 210.093 235.849 209.067 234.985 209.067C234.12 209.067 233.413 206.56 233.413 203.496C233.413 200.432 233.907 197.926 234.513 197.926C235.117 197.926 243.01 201.507 252.055 205.883C261.1 210.26 270.285 213.841 272.467 213.841C274.647 213.841 280.209 212.027 284.826 209.811L293.221 205.78L297.157 210.206C301.819 215.45 305.164 214.113 300.634 208.815C296.537 204.021 296.655 203.534 302.456 201.37C307.094 199.638 307.711 199.958 312.655 206.633C315.552 210.542 319.113 213.763 320.572 213.79C322.678 213.83 322.579 213.023 320.086 209.862C318.361 207.674 315.519 204.071 313.772 201.855C312.024 199.64 310.932 197.619 311.344 197.364C311.756 197.109 316.245 194.953 321.32 192.572L330.548 188.243L330.544 179.158L330.54 170.073L341.638 170.073C352.543 170.073 352.817 169.962 357.234 163.707C359.709 160.206 362.417 156.42 363.255 155.294C364.428 153.717 366.928 154.233 374.155 157.542C380.309 160.36 383.223 161.064 382.629 159.588C382.132 158.353 370.217 151.97 356.154 145.404C331.348 133.824 330.584 133.309 330.567 128.125C330.544 121.622 329.277 121.289 359.503 135.702C373.106 142.189 383 146.033 383 144.833C383 143.692 380.851 141.817 378.227 140.666L373.456 138.573L378.38 131.688C381.088 127.902 382.969 123.53 382.559 121.974C382.048 120.046 379.983 122.052 376.082 128.265L370.353 137.385L365.207 134.618L360.061 131.854L371.453 115.154C377.718 105.969 382.876 96.6631 382.913 94.4747C382.949 92.2863 380.826 87.631 378.194 84.1296C372.164 76.1081 372.158 74.8174 378.143 72.1929C380.814 71.0215 383 69.1339 383 67.9992C383 66.5206 381.158 66.8246 376.515 69.0687L370.031 72.2024L367.629 67.8862C364.995 63.1497 365.219 62.9046 377.026 57.5458C380.311 56.0545 383 54.0158 383 53.0163C383 52.0168 378.338 53.3553 372.638 55.9893L362.277 60.7799L356.993 51.9531L351.709 43.1264L341.127 44.145L330.548 45.1635L330.548 35.7002L330.548 26.2368L320.834 21.9046C315.492 19.5236 311.121 17.1315 311.121 16.5904C311.121 16.0477 312.298 14.1919 313.737 12.4667C322.252 2.2473 323.218 0.572966 320.572 0.617522C319.113 0.641402 310.489 10.6666 301.407 22.8945C285.631 44.1386 284.613 45.1285 278.581 45.1333C275.109 45.1349 272.267 44.7131 272.267 44.1943C272.267 43.677 279.327 33.9431 287.956 22.5635C296.584 11.1855 303.07 1.40375 302.367 0.829192C301.666 0.253051 299.332 1.76028 297.184 4.17625L293.277 8.56894L283.911 4.39268C278.759 2.09607 273.444 0.517273 272.1 0.883332C270.756 1.25098 274.625 3.84998 280.7 6.65747C291.702 11.7457 291.731 11.7791 288.591 15.7039C286.859 17.8716 284.881 19.3979 284.197 19.0971C283.511 18.7963 274.21 14.5723 263.525 9.71007C248.164 2.71997 242.348 0.883318 235.735 0.939013C229.701 0.98836 227.642 1.58202 228.341 3.07331C228.887 4.23831 226.575 6.46012 223.045 8.16626L216.784 11.1934L217.54 5.88399C218.138 1.68706 217.598 0.57297 214.966 0.572971C212.263 0.572971 211.772 1.74912 212.362 6.81186C213.079 12.9728 212.937 13.1224 200.996 18.7485C194.346 21.8823 188.151 24.4463 187.228 24.4463C186.307 24.4463 182.117 19.0828 177.915 12.5271C173.713 5.97153 169.26 0.600026 168.019 0.590474C166.777 0.580938 161.472 7.15406 156.229 15.1994C150.985 23.2431 145.845 30.0565 144.807 30.3398C143.77 30.6231 141.283 29.8735 139.281 28.6751C135.797 26.5869 135.988 25.9678 143.731 14.2078C152.549 0.814901 152.66 0.572973 150.014 0.572973C149.021 0.572973 144.588 5.94448 140.164 12.5096C135.741 19.0748 131.706 24.4463 131.201 24.4463C130.694 24.4463 124.635 21.7868 117.738 18.5369C105.789 12.9059 105.196 12.3425 105.196 6.6002C105.196 3.28498 104.322 0.572975 103.253 0.572975C102.047 0.572975 101.311 9.32653 101.311 23.6505L101.311 46.7281L95.4827 46.7281L89.6547 46.7281L89.6547 23.6505C89.6547 9.32653 88.9184 0.572976 87.712 0.572976C86.6435 0.572976 85.7693 1.3767 85.7693 2.35868C85.7693 3.6192 84.9398 3.581 82.9485 2.22817C81.3963 1.17298 78.5561 0.584115 76.6348 0.919931C73.884 1.399 74.4843 2.11361 79.4556 4.27494C84.7552 6.57951 85.7693 7.92437 85.7693 12.6433L85.7693 18.2647L73.6275 12.5192C66.9505 9.35836 57.8044 5.24897 53.3051 3.38685L45.1245 1.04014e-05L35.0342 4.49934L24.9419 8.99867L21.1964 4.78582C15.7764 -1.30982 12.8099 -0.394687 17.3868 5.96199L21.2683 11.3494L16.5165 13.124C10.1503 15.4986 10.8264 15.8153 5.04497 7.73497C2.22807 3.79588 -1.33286 0.57298 -2.86758 0.57298C-4.81221 0.57298 -3.65437 3.13537 0.953673 9.03845L7.56463 17.5039L-1.90012 21.8632L-11.3649 26.2209L-11.3649 35.8418L-11.3649 45.4628L-24.3906 44.901L-37.4163 44.3407L-41.8398 50.7069C-44.274 54.2084 -46.5586 57.7543 -46.916 58.5883C-47.2735 59.4223 -51.66 58.1379 -56.6625 55.7363C-62.6148 52.8778 -65.7503 52.0789 -65.729 53.4253C-65.7134 54.5569 -53.4745 61.1666 -38.5314 68.1154C-12.1769 80.3719 -11.3649 80.9083 -11.3649 86.0204C-11.3649 88.9202 -11.7223 91.2916 -12.1594 91.2916C-12.5965 91.2916 -24.3634 85.9201 -38.3099 79.3549C-52.2545 72.7898 -64.136 67.4183 -64.7129 67.4183C-67.6542 67.4183 -65.1675 70.891 -61.152 72.3903L-56.542 74.1107L-61.2996 81.0833C-63.9164 84.919 -65.7095 89.3212 -65.286 90.8682C-64.7615 92.7797 -62.7586 90.8157 -59.0286 84.7344C-53.5561 75.8121 -53.5289 75.7946 -48.4507 78.1819L-43.3609 80.5756L-54.6906 98.7416C-60.9228 108.733 -65.6668 117.769 -65.2336 118.822C-64.7984 119.874 -62.9198 118.329 -61.0568 115.389L-57.6707 110.043L-43.425 132.896L-29.1774 155.75L-20.2721 156.235C-11.8408 156.693 -11.3649 156.97 -11.3649 161.407L-11.3649 166.095L-23.7845 166.095C-33.8223 166.095 -36.4527 165.561 -37.5018 163.309C-41.5192 154.688 -64.6313 121.146 -65.3462 122.901C-65.8125 124.049 -63.932 128.395 -61.1656 132.559L-56.136 140.132L-60.948 142.24C-66.1039 144.502 -67.7027 147.981 -62.846 146.37C-61.2433 145.839 -58.6887 144.991 -57.1675 144.484C-55.5337 143.942 -53.49 144.962 -52.1748 146.974C-49.4765 151.107 -51.6056 153.72 -59.9961 156.568C-63.1666 157.643 -65.76 159.579 -65.76 160.868C-65.76 162.655 -63.6386 162.195 -56.8645 158.944ZM-38.9316 83.3656C-38.1933 83.3815 -31.9088 86.1031 -24.9637 89.4135L-12.3362 95.4312L-11.8039 107.287L-11.2716 119.144L-25.053 125.266C-32.6334 128.634 -39.2793 131.025 -39.8233 130.579C-40.3672 130.133 -44.0991 124.651 -48.1166 118.394L-55.4211 107.021L-47.8465 95.1782C-43.6795 88.6639 -39.6678 83.3481 -38.9316 83.3656ZM-2.46544 48.5122L30.7681 48.9483L34.6592 53.8057L38.5504 58.6647L4.98475 58.165C-28.41 57.6684 -28.5926 57.6843 -30.9199 61.3481C-32.2079 63.3741 -33.4668 65.2363 -33.7174 65.4877C-33.97 65.7408 -36.408 65.1121 -39.1375 64.0935L-44.1011 62.2409L-39.901 55.1585L-35.7009 48.0761L-2.46544 48.5122ZM-9.39694 121.625C16.466 109.273 16.872 109.146 22.127 111.676C25.1887 113.152 26.7253 114.835 25.7423 115.641C24.8021 116.411 11.4791 122.973 -3.86417 130.223C-31.087 143.087 -31.8194 143.324 -34.1176 140.028C-35.4134 138.171 -36.2759 136.086 -36.035 135.394C-35.7941 134.703 -23.8078 128.507 -9.39694 121.625ZM-20.5926 141.642L-11.3649 137.313L-11.3649 145.338L-11.3649 153.362L-18.8384 153.362C-24.7014 153.362 -26.7432 152.59 -28.3109 149.781C-29.4105 147.812 -30.1992 146.149 -30.0652 146.086C-29.9311 146.022 -25.6689 144.023 -20.5926 141.642ZM-18.8228 61.052L-11.3649 61.052L-11.3649 69.0098L-11.3649 76.966L-20.8394 72.6338C-29.4629 68.6883 -30.1332 67.9737 -28.2973 64.676C-26.7101 61.8208 -24.6995 61.052 -18.8228 61.052ZM-2.6908 133.651C-0.05846 132.237 2.56417 131.08 3.13726 131.08C3.70841 131.08 4.17659 142.215 4.1766 155.824L4.1766 180.567L9.857 183.237C15.3626 185.825 15.4422 186.038 12.4835 190.143L9.42961 194.38L0.975058 190.196L-7.47951 186.013L-7.47951 161.116C-7.47951 136.412 -7.4426 136.202 -2.6908 133.651ZM-1.65146 61.052L4.17659 61.052L4.17659 86.1731L4.17659 111.296L-1.65146 114.116L-7.47951 116.936L-7.47951 88.995L-7.47951 61.052L-1.65146 61.052ZM18.5253 16.0604C32.8292 9.29312 45.2857 3.772 46.2085 3.7911C47.1313 3.81021 49.8161 5.06434 52.1764 6.57632C56.427 9.30265 56.2386 9.43316 30.8069 21.4669C5.91335 33.246 5.13045 33.7808 4.5457 39.3719C3.9998 44.5779 3.38786 45.1365 -1.76803 45.1365C-7.3649 45.1365 -7.47951 44.9694 -7.47952 36.7506L-7.47952 28.3631L18.5253 16.0604ZM17.7754 169.278C23.1178 169.278 27.4888 169.65 27.4888 170.105C27.4888 170.561 25.2858 173.791 22.5952 177.283C17.787 183.524 17.6161 183.591 12.8818 181.047C9.59474 179.284 8.06196 177.002 8.06196 173.869C8.06196 169.421 8.36308 169.278 17.7754 169.278ZM28.7632 155.991C40.1473 155.42 57.6315 154.954 67.6169 154.954L85.7693 154.954L85.7693 159.728L85.7693 164.503L57.1147 164.517C41.3557 164.524 23.8715 164.982 18.2611 165.534L8.06196 166.539L8.06196 161.783L8.06196 157.029L28.7632 155.991ZM20.4893 122.359L32.9186 116.666L45.2585 122.519C52.0463 125.739 57.8374 128.52 58.1249 128.698C58.4144 128.878 54.9176 134.116 50.3542 140.34L42.0589 151.658L29.4315 151.736C22.4864 151.779 14.8361 152.246 12.433 152.773C8.16492 153.711 8.06196 153.432 8.06196 140.894L8.06196 128.053L20.4893 122.359ZM10.0046 105.616C11.0731 105.616 11.9473 106.332 11.9473 107.207C11.9473 108.082 11.0731 108.799 10.0046 108.799C8.93617 108.799 8.06196 108.082 8.06196 107.207C8.06196 106.332 8.93617 105.616 10.0046 105.616ZM36.7166 103.543C52.4756 111.04 65.7072 117.415 66.1191 117.711C66.5309 118.007 65.4624 120.006 63.7451 122.155L60.6213 126.061L34.3931 113.849C8.21155 101.657 8.16687 101.627 8.11441 95.775L8.06196 89.9133L36.7166 103.543ZM24.0891 62.2505C42.0395 63.0017 43.2012 63.6415 53.1381 78.2201L58.3891 85.9248L45.75 91.8805L33.109 97.836L20.5864 92.0985L8.06196 86.3609L8.06196 73.9691L8.06196 61.5789L24.0891 62.2505ZM11.8191 34.0513C17.6219 31.508 18.6865 31.9425 23.3703 38.7703L27.7375 45.1365L17.8997 45.1365C8.28925 45.1365 8.06196 45.0267 8.06196 40.4176C8.06196 37.3809 9.4024 35.1113 11.8191 34.0513ZM30.2882 26.0554C32.3863 26.0729 38.0162 33.0311 59.8636 62.5974L72.1764 79.2626L67.1448 81.4223C64.3784 82.6112 61.8646 83.3481 61.5596 83.0601C61.2546 82.7736 52.1279 70.7271 41.276 56.2901C23.3412 32.4279 21.8511 29.8592 24.8895 28.04C26.7273 26.9387 29.1576 26.0458 30.2882 26.0554ZM45.4936 177.633L53.0914 167.686L69.4313 167.686L85.7693 167.686L85.7693 180.304L85.7693 192.92L74.1599 198.699L62.5484 204.477L48.8583 197.926C40.0269 193.7 35.652 190.702 36.532 189.478C37.2819 188.435 41.3149 183.104 45.4936 177.633ZM49.4411 16.4519L61.4624 10.7573L73.5984 16.4089L85.7324 22.059L85.7518 34.4556L85.7693 46.8522L68.9379 46.3922L52.1065 45.9323L43.7258 34.8885C39.1177 28.8151 35.8132 23.4627 36.3824 22.9948C36.9536 22.5285 42.8282 19.5841 49.4411 16.4519ZM63.4284 87.1663C88.7999 75.201 89.6547 74.6264 89.6547 69.5175C89.6547 64.6887 90.1637 64.2351 95.5838 64.2351C101.509 64.2351 101.513 64.2431 100.926 72.4842L100.339 80.7332L74.3969 93.1664L48.4542 105.6L42.8282 102.878C39.7335 101.38 37.2022 100.015 37.2022 99.8446C37.2022 99.6743 49.004 93.9686 63.4284 87.1663ZM65.3536 126.433L80.052 107.029L76.0404 102.415L72.0287 97.7994L77.5459 95.463C83.0126 93.1457 83.1078 93.1887 88.2637 100.18L93.4662 107.236L76.8116 129.503C60.5999 151.18 59.9802 151.771 53.4683 151.771C45.5538 151.771 44.5669 153.873 65.3536 126.433ZM64.6154 101.589C69.3323 99.5501 69.8374 99.6695 71.8578 103.301C73.4469 106.16 73.4546 108.242 71.883 111.068L69.7364 114.928L61.138 111.506C51.7723 107.778 52.0366 107.026 64.6154 101.589ZM86.5872 50.6305L118.488 51.7749L121.938 47.2612C123.836 44.78 125.542 42.5438 125.726 42.2924C125.913 42.0393 128.316 42.6744 131.069 43.7025L136.075 45.571L131.215 53.4317L126.352 61.2908L94.8902 60.2292C63.9316 59.182 63.3585 59.0976 59.0671 54.9357C56.6679 52.6104 54.7019 50.4316 54.6961 50.0958C54.6903 49.76 69.0409 50.0003 86.5872 50.6305ZM75.238 137.786C75.4109 137.533 77.8956 138.201 80.7572 139.271C85.002 140.854 85.8548 142.113 85.3808 146.094C84.8194 150.797 84.4211 150.992 74.5018 151.459L64.2055 151.943L69.5634 145.092C72.5124 141.325 75.0651 138.037 75.238 137.786ZM75.0846 62.6436L85.7693 62.6436L85.7693 67.9578C85.7693 72.177 84.697 73.6747 80.5688 75.2153C76.3939 76.7734 75.0671 76.7448 73.8471 75.072C73.0098 73.9261 70.6067 70.8401 68.5047 68.214C66.4027 65.588 64.6193 63.2611 64.5416 63.0415C64.4639 62.8218 69.2079 62.6436 75.0846 62.6436ZM97.0816 191.563C112.386 184.394 125.163 178.776 125.474 179.077C128.907 182.392 130.101 186.619 127.982 187.951C122.556 191.361 80.4386 210.658 78.424 210.658C74.3502 210.658 66.2279 206.932 67.747 205.759C68.5766 205.118 81.7791 198.729 97.0816 191.563ZM83.4459 127.294C84.2929 126.864 88.4405 128.101 92.6639 130.04L100.339 133.565L100.848 159.778L101.357 185.989L95.5061 188.699L89.6547 191.411L89.6547 165.568L89.6547 139.724L83.8189 136.901C78.9894 134.563 78.3211 133.558 79.9452 131.076C81.0233 129.425 82.5989 127.724 83.4459 127.294ZM97.4254 107.63C97.4254 106.865 94.8397 102.899 91.6809 98.818L85.9364 91.3982L95.5643 86.9673L105.192 82.538L105.194 73.463L105.196 64.3863L117.285 63.9136C129.151 63.4473 129.454 63.3216 133.763 57.0732C136.178 53.5717 138.437 50.0496 138.783 49.2459C139.127 48.4422 143.951 49.8093 149.501 52.2842L159.591 56.7835L169.231 52.4847L178.871 48.1875L183.834 56.2105L188.798 64.2351L200.421 64.2351L212.044 64.2351L212.044 72.7356L212.044 81.2361L221.757 85.5667C227.1 87.9493 231.471 90.3112 231.471 90.8173C231.471 91.3218 228.803 95.2864 225.544 99.6265C219.109 108.195 218.872 106.598 228.349 118.604L231.69 122.838L221.868 127.358L212.048 131.876L212.046 140.948L212.044 150.02L200.873 150.497L189.703 150.975L184.287 159.254L178.872 167.533L169.231 162.876L159.591 158.22L150.039 162.834L140.489 167.447L134.983 158.816L129.48 150.187L117.338 150.182L105.196 150.179L105.169 141.028L105.14 131.876L95.3875 127.469L85.6333 123.062L91.5294 116.042C94.7717 112.181 97.4254 108.394 97.4254 107.63ZM110.381 166.68C114.41 165.853 116.372 166.43 119.187 169.279C123.928 174.076 123.049 175.698 113.311 180.14L105.196 183.84L105.196 175.794C105.196 168.402 105.618 167.661 110.381 166.68ZM115.696 153.362C127.72 153.362 125.862 151.543 146.577 183.602L157.377 200.313L154.076 205.466L150.775 210.618L135.271 186.777L119.766 162.934L112.481 162.923C105.686 162.911 105.196 162.592 105.196 158.137C105.196 153.421 105.324 153.362 115.696 153.362ZM106.653 32.4534C107.454 32.4805 111.298 34.1102 115.193 36.0742C122.055 39.5326 122.191 39.7793 119.502 43.981C116.72 48.3323 113.991 49.152 108.269 47.3535C106.113 46.6755 105.196 44.3025 105.196 39.3958C105.196 35.5506 105.853 32.4263 106.653 32.4534ZM111.51 19.3295C114.981 21.0356 127.168 26.8639 138.591 32.2831C158.975 41.9534 159.463 42.0887 165.11 39.6966C170.604 37.3697 171.003 37.4318 173.915 41.0733C176.897 44.8023 176.77 44.9805 168.192 49.0995L159.416 53.3123L150.276 48.9833C103.263 26.7159 105.196 27.8793 105.196 21.8361L105.196 16.2291L111.51 19.3295ZM159.721 162.911C160.642 162.911 169.515 166.76 179.436 171.463C214.276 187.982 212.044 186.535 212.044 192.607C212.044 195.635 211.387 197.805 210.587 197.426C209.786 197.049 198.379 191.634 185.239 185.395C172.098 179.156 160.271 174.052 158.958 174.052C157.645 174.052 154.667 175.144 152.341 176.479C148.368 178.759 147.939 178.639 145.309 174.525C142.562 170.233 142.665 170.069 150.276 166.528C154.548 164.538 158.799 162.911 159.721 162.911ZM158.634 18.47C158.814 18.2472 161.32 21.6133 164.201 25.9503L169.441 33.8349L164.205 36.0821C159.648 38.0398 158.297 38.0143 153.777 35.888L148.584 33.4465L153.445 26.1604C156.118 22.1545 158.453 18.6928 158.634 18.47ZM154.735 179.117C158.367 177.761 160.815 177.761 164.448 179.117C170.266 181.289 170.262 181.031 164.652 189.818L160.174 196.832L155.043 189.818C152.223 185.962 149.907 182.384 149.895 181.868C149.886 181.351 152.063 180.113 154.735 179.117ZM164.619 9.85174L167.704 4.96566L171.061 9.53342C172.906 12.0449 179.883 22.5157 186.562 32.8019C198.451 51.1112 198.845 51.5027 205.375 51.5027C211.49 51.5027 212.044 51.899 212.044 56.2774C212.044 60.9788 211.888 61.052 201.845 61.0282L191.646 61.0043L176.671 38.3485C168.434 25.8882 161.66 15.4779 161.616 15.2153C161.571 14.9543 162.923 12.5399 164.619 9.85174ZM202.975 153.938C208.498 154.481 222.631 154.936 234.385 154.951L255.754 154.974L259.23 159.977L262.705 164.977L231.405 164.051L200.102 163.125L196.203 168.541C192.44 173.764 192.137 173.868 187.663 171.466L183.024 168.977L187.982 160.963L192.937 152.95L202.975 153.938ZM214.651 16.0429C228.906 9.28514 241.363 3.77199 242.334 3.79109C243.304 3.8102 246.041 5.06433 248.415 6.57631C252.693 9.30264 252.471 9.44908 223.214 23.2303C193.926 37.0259 193.678 37.1071 191.282 33.5754C189.955 31.6178 188.838 29.6379 188.8 29.1732C188.763 28.7101 200.395 22.8006 214.651 16.0429ZM206.529 167.686C211.77 167.686 212.044 168.041 212.044 174.848C212.044 178.787 211.387 182.007 210.587 182.004C209.786 182.001 206.299 180.584 202.839 178.856C197.097 175.988 196.743 175.362 198.779 171.7C200.403 168.781 202.517 167.686 206.529 167.686ZM204.273 35.7782L212.044 32.2004L212.044 39.4642C212.044 44.6733 211.265 46.728 209.289 46.728C207.774 46.728 205.301 47.1164 203.793 47.5891C202.173 48.0984 200.176 46.9588 198.909 44.8039C195.834 39.5724 195.758 39.6982 204.273 35.7782ZM222.729 27.1519L228.557 24.8712L227.976 49.3175L227.395 73.7622L234.056 76.3644C240.663 78.9443 240.693 79.0032 237.602 83.415L234.486 87.8634L226.664 84.05L218.843 80.235L217.872 64.676C217.338 56.1166 216.901 44.6861 216.901 39.2732C216.901 29.9053 217.18 29.3212 222.729 27.1519ZM243.939 120.723L270.004 108.582L276.182 111.199L282.357 113.815L254.971 126.607L227.585 139.399L227.585 145.755C227.585 150.897 226.999 151.927 224.512 151.145C222.822 150.614 220.636 150.179 219.655 150.179C218.674 150.179 217.872 146.283 217.872 141.521L217.872 132.865L243.939 120.723ZM241.67 84.1916L257.697 62.6706L265.114 62.6579L272.531 62.6436L268.77 67.0204C261.65 75.3044 239.241 105.983 239.241 107.446C239.241 108.251 240.615 110.627 242.291 112.725C245.209 116.373 245.106 116.639 239.894 118.876C234.567 121.163 234.354 121.087 230.227 115.405C227.908 112.209 225.926 108.721 225.825 107.654C225.724 106.586 232.856 96.028 241.67 84.1916ZM245.555 167.708C263.579 167.74 265.543 168.566 274.173 179.761C278.466 185.332 281.98 190.471 281.98 191.181C281.98 191.892 276.286 195.156 269.326 198.437L256.669 204.399L247.471 200.093C233.031 193.334 233.413 193.875 233.413 180.224L233.413 167.686L245.555 167.708ZM237.507 138.947C242.05 136.955 242.583 137.278 248.803 145.802L253.157 151.771L243.286 151.771L233.413 151.771L233.413 146.256C233.413 142.277 234.554 140.241 237.507 138.947ZM243.286 62.6436L253.157 62.6436L248.803 68.6119C242.596 77.1172 242.447 77.1967 237.705 74.4752C234.931 72.8836 233.413 70.3563 233.413 67.3275C233.413 62.7582 233.654 62.6436 243.286 62.6436ZM251.566 49.9111C261.551 49.9111 279.035 49.4448 290.419 48.8735L311.121 47.8358L311.121 52.6057L311.121 57.3755L284.587 58.418C269.994 58.991 252.51 59.4605 245.734 59.4605L233.413 59.4605L233.413 54.6858L233.413 49.9112L251.566 49.9111ZM245.423 16.3326L257.353 10.6077L269.648 16.3326C276.411 19.4822 281.953 22.6494 281.963 23.372C281.973 24.0945 278.064 29.6443 273.277 35.7065L264.574 46.728L248.994 46.728L233.413 46.728L233.454 34.3935L233.493 22.059L245.423 16.3326ZM246.692 102.362L250.256 98.756L258.249 102.66L266.243 106.566L257.464 110.467C248.838 114.301 248.636 114.315 245.905 111.28C242.346 107.322 242.4 106.703 246.692 102.362ZM254.023 131.131C256.084 131.082 295.579 182.243 295.579 184.961C295.579 185.683 293.479 187.057 290.915 188.015C286.404 189.699 285.572 188.852 265.86 162.463C247.624 138.051 245.808 134.959 248.669 133.176C250.429 132.078 252.838 131.158 254.023 131.131ZM258.035 88.1085C258.509 88.1085 270.641 93.6582 284.994 100.443C310.037 112.279 311.092 112.986 311.105 117.95C311.113 120.796 310.713 123.123 310.213 123.123C309.712 123.123 296.209 116.952 280.203 109.411L251.101 95.7002L254.136 91.9043C255.807 89.8162 257.561 88.1085 258.035 88.1085ZM275.667 120.594L285.866 115.961L296.065 120.575C311.534 127.571 311.121 127.014 311.121 140.824L311.121 153.362L301.893 153.244C296.817 153.179 288.922 152.643 284.345 152.051C276.619 151.051 275.418 150.184 267.511 139.89C257.914 127.396 257.254 128.957 275.667 120.594ZM288.24 193.251C313.458 181.331 314.048 180.926 314.637 175.168C315.185 169.824 315.77 169.278 320.951 169.278C326.561 169.278 326.662 169.429 326.662 177.81L326.662 186.344L299.752 198.994C273.112 211.514 272.778 211.618 266.746 209.278C263.393 207.976 261.054 206.582 261.547 206.178C262.039 205.774 274.05 199.956 288.24 193.251ZM274.21 66.0113C276.487 63.6717 280.84 62.7836 294.122 61.9513L311.121 60.8865L311.121 72.7102C311.121 85.7307 311.466 85.2818 296.065 92.2481L285.866 96.862L275.667 92.2481C259.614 84.9874 259.964 85.5445 265.969 76.7814C268.898 72.5049 272.607 67.6586 274.21 66.0113ZM347.084 151.732C350.476 146.359 351.363 146.154 356.756 149.491C360.589 151.866 360.579 151.952 355.606 159.133C352.846 163.118 350.011 166.316 349.31 166.236C348.607 166.158 334.262 166.093 317.434 166.091L286.837 166.088L283.845 161.715L280.856 157.341L312.475 156.905L344.096 156.469L347.084 151.732ZM300.436 169.278C310.919 169.278 311.121 169.365 311.121 173.869C311.121 177.052 309.578 179.289 306.095 181.159C303.332 182.642 300.572 183.447 299.962 182.948C298.812 182.005 289.918 170.377 289.811 169.676C289.778 169.458 294.559 169.278 300.436 169.278ZM349.427 74.7856C350.796 76.3198 351.913 78.3347 351.911 79.261C351.907 80.1889 340.607 86.1859 326.802 92.5887L301.699 104.229L295.569 101.633L289.44 99.0361L318.188 85.5158C344.646 73.0715 347.134 72.2168 349.427 74.7856ZM297.602 34.5129C300.034 31.2932 300.601 31.212 305.67 33.359C309.788 35.1049 311.121 36.8254 311.121 40.4032C311.121 45.0919 311.016 45.1365 300.212 45.1365C289.353 45.1365 289.318 45.1206 292.145 41.5555C293.706 39.5867 296.162 36.4164 297.602 34.5129ZM305.586 23.7571L307.824 19.7353L317.242 23.9354L326.662 28.1355L326.651 52.9494L326.637 77.7633L320.822 80.4738L315.006 83.1858L315.006 58.6806L315.006 34.1755L309.178 31.3552C305.973 29.8035 303.35 28.3647 303.35 28.1562C303.35 27.9493 304.356 25.9694 305.586 23.7571ZM308.207 105.039C309.965 104.487 311.121 105.031 311.121 106.411C311.121 107.791 309.965 108.336 308.207 107.783C306.604 107.279 305.293 106.661 305.293 106.411C305.293 106.161 306.604 105.544 308.207 105.039ZM319.954 99.5056C322.676 98.4886 325.298 97.6578 325.782 97.6578C326.266 97.6578 326.662 110.191 326.662 125.51L326.662 153.362L320.834 153.362L315.006 153.362L315.006 127.358L315.006 101.352L319.954 99.5056ZM338.318 140.63C342.592 142.415 346.062 144.758 346.027 145.834C345.908 149.614 340.752 153.362 335.676 153.362C330.814 153.362 330.548 152.947 330.548 145.373L330.548 137.381L338.318 140.63ZM342.513 89.0077C356.018 82.4155 354.443 81.7932 364.409 97.661L370.907 108.009L363.841 119.419L356.774 130.829L343.661 124.512L330.548 118.195L330.548 106.521L330.548 94.8471L342.513 89.0077ZM335.181 61.052C337.967 61.052 341.071 62.6229 342.965 64.9927C346.071 68.8761 346.005 68.9796 338.332 72.1866L330.548 75.4413L330.548 68.2458C330.548 61.7252 330.981 61.052 335.181 61.052ZM340.385 48.6347L350.221 49.1154L365.327 71.5977L380.434 94.0815L377.151 99.2828L373.867 104.484L366.023 92.7144C361.708 86.2416 354.802 75.7659 350.678 69.4347C343.738 58.7872 342.701 57.9214 336.861 57.896C331.125 57.8721 330.548 57.4249 330.548 53.0115C330.548 48.1716 330.584 48.1557 340.385 48.6347Z" fill="white"/>
</svg>
