<svg width="717" height="127" viewBox="0 0 717 127" fill="none" xmlns="http://www.w3.org/2000/svg">
<path d="M6.17773 91.2753L57.1991 115.66L129.604 59.0118L192.631 108.532L232.772 44.0055L241.776 123.539L313.431 44.0055L359.2 108.532L404.969 21.4961L437.983 108.532L492.756 72.5174L539.276 9.86621L583.169 108.532L609.055 59.0118C612.431 75.2686 620.61 106.131 626.312 99.5287C632.014 92.9259 682.961 37.0026 707.721 9.86621" stroke="#14324C" stroke-width="0.750314" stroke-dasharray="1.5 1.5"/>
<circle cx="4.30235" cy="90.149" r="3.75157" fill="#14324C"/>
<circle cx="128.855" cy="59.3863" r="3.75157" fill="#14324C"/>
<circle cx="56.8238" cy="115.66" r="3.75157" fill="#14324C"/>
<circle cx="191.88" cy="108.158" r="3.75157" fill="#14324C"/>
<circle cx="233.148" cy="42.1295" r="3.75157" fill="#14324C"/>
<circle cx="242.152" cy="123.163" r="3.75157" fill="#14324C"/>
<circle cx="313.431" cy="42.1295" r="3.75157" fill="#14324C"/>
<circle cx="359.201" cy="110.408" r="3.75157" fill="#14324C"/>
<circle cx="404.97" cy="20.3697" r="3.75157" fill="#14324C"/>
<circle cx="438.734" cy="108.158" r="3.75157" fill="#14324C"/>
<circle cx="493.507" cy="72.1412" r="3.75157" fill="#14324C"/>
<circle cx="538.525" cy="9.86583" r="3.75157" fill="#14324C"/>
<circle cx="582.795" cy="108.158" r="3.75157" fill="#14324C"/>
<circle cx="609.056" cy="56.3854" r="3.75157" fill="#14324C"/>
<circle cx="624.81" cy="102.154" r="3.75157" fill="#14324C"/>
<path d="M710.994 3.30016L710.994 14.3466L701.427 8.82338L710.994 3.30016Z" fill="#14324C"/>
</svg>
