<svg width="196" height="79" viewBox="0 0 196 79" fill="none" xmlns="http://www.w3.org/2000/svg">
<path fill-rule="evenodd" clip-rule="evenodd" d="M25.0836 18.9338H97.7615H170.439V21.8352H97.7615H25.0836V18.9338ZM100.306 36.788H97.7615H95.2173L95.7563 39.4839H97.7617H99.7671L100.306 36.788H100.306ZM98.9655 40.31H97.7615H96.5575C96.2063 40.31 95.9193 40.5972 95.9193 40.9481V58.1252C95.9193 58.4763 96.2065 58.7633 96.5575 58.7633H97.7615H98.9655C99.3167 58.7633 99.6037 58.4761 99.6037 58.1252V40.9481C99.6037 40.5972 99.3165 40.31 98.9655 40.31ZM99.3057 59.4793H97.7615H96.2173C96.0301 59.4793 95.8769 59.6325 95.8769 59.8196C95.8769 60.0068 96.0301 60.16 96.2173 60.16H97.7615H99.3057C99.4929 60.16 99.6462 60.0068 99.6462 59.8196C99.6462 59.6325 99.4929 59.4793 99.3057 59.4793ZM99.6462 60.811H97.7613H95.8764V63.4182H97.7613H99.6462V60.811ZM135.362 36.8461H102.166V63.2397H135.362V36.8461ZM117.43 38.91H114.689V42.9778H117.43V38.91ZM109.926 38.91H107.185V42.9778H109.926V38.91ZM106.681 38.91H103.941V42.9778H106.681V38.91ZM109.926 43.4596H107.185V47.5274H109.926V43.4596ZM106.681 43.4596H103.941V47.5274H106.681V43.4596ZM109.926 48.009H107.185V52.0768H109.926V48.009ZM106.681 48.009H103.941V52.0768H106.681V48.009ZM109.926 52.5586H107.185V56.6264H109.926V52.5586ZM106.681 52.5586H103.941V56.6264H106.681V52.5586ZM109.926 57.1082H107.185V61.176H109.926V57.1082ZM106.681 57.1082H103.941V61.176H106.681V57.1082ZM114.186 38.9102H111.445V42.978H114.186V38.9102ZM117.43 43.4598H114.689V47.5276H117.43V43.4598ZM114.186 43.4598H111.445V47.5276H114.186V43.4598ZM117.43 48.0092H114.689V52.077H117.43V48.0092ZM114.186 48.0092H111.445V52.077H114.186V48.0092ZM117.43 52.5588H114.689V56.6266H117.43V52.5588ZM114.186 52.5588H111.445V56.6266H114.186V52.5588ZM117.43 57.1084H114.689V61.1762H117.43V57.1084ZM114.186 57.1084H111.445V61.1762H114.186V57.1084ZM125.479 38.9104H122.738V42.9782H125.479V38.9104ZM122.234 38.9104H119.493V42.9782H122.234V38.9104ZM125.479 43.46H122.738V47.5278H125.479V43.46ZM122.234 43.46H119.493V47.5278H122.234V43.46ZM125.479 48.0094H122.738V52.0772H125.479V48.0094ZM122.234 48.0094H119.493V52.0772H122.234V48.0094ZM125.479 52.559H122.738V56.6268H125.479V52.559ZM122.234 52.559H119.493V56.6268H122.234V52.559ZM125.479 57.1086H122.738V61.1764H125.479V57.1086ZM122.234 57.1086H119.493V61.1764H122.234V57.1086ZM133.291 38.9106H130.55V42.9785H133.291V38.9106ZM130.047 38.9106H127.306V42.9785H130.047V38.9106ZM133.291 43.4602H130.55V47.5281H133.291V43.4602ZM130.047 43.4602H127.306V47.5281H130.047V43.4602ZM133.291 48.0096H130.55V52.0774H133.291V48.0096ZM130.047 48.0096H127.306V52.0774H130.047V48.0096ZM133.291 52.5592H130.55V56.6271H133.291V52.5592ZM130.047 52.5592H127.306V56.6271H130.047V52.5592ZM133.291 57.1088H130.55V61.1767H133.291V57.1088ZM130.047 57.1088H127.306V61.1767H130.047V57.1088ZM141.774 36.7887H137.093L137.661 39.4845H141.235L141.774 36.7887ZM140.434 40.3106H138.433C138.082 40.3106 137.795 40.5978 137.795 40.9487V58.1259C137.795 58.477 138.082 58.764 138.433 58.764H140.434C140.785 58.764 141.072 58.4768 141.072 58.1259V40.9487C141.072 40.5978 140.785 40.3106 140.434 40.3106ZM140.774 59.4799H138.093C137.906 59.4799 137.753 59.6331 137.753 59.8203C137.753 60.0074 137.906 60.1606 138.093 60.1606H140.774C140.961 60.1606 141.114 60.0074 141.114 59.8203C141.114 59.6331 140.961 59.4799 140.774 59.4799ZM141.114 60.8116H137.753V63.4189H141.114V60.8116ZM176.917 36.8467H143.722V63.2403H176.917V36.8467ZM158.986 38.9106H156.245V42.9785H158.986V38.9106ZM151.481 38.9106H148.741V42.9785H151.481V38.9106ZM148.237 38.9106H145.496V42.9785H148.237V38.9106ZM151.481 43.4602H148.741V47.5281H151.481V43.4602ZM148.237 43.4602H145.496V47.5281H148.237V43.4602ZM151.481 48.0096H148.741V52.0774H151.481V48.0096ZM148.237 48.0096H145.496V52.0774H148.237V48.0096ZM151.481 52.5592H148.741V56.6271H151.481V52.5592ZM148.237 52.5592H145.496V56.6271H148.237V52.5592ZM151.481 57.1088H148.741V61.1767H151.481V57.1088ZM148.237 57.1088H145.496V61.1767H148.237V57.1088ZM155.741 38.9108H153V42.9787H155.741V38.9108ZM158.986 43.4604H156.245V47.5283H158.986V43.4604ZM155.741 43.4604H153V47.5283H155.741V43.4604ZM158.986 48.0098H156.245V52.0777H158.986V48.0098ZM155.741 48.0098H153V52.0777H155.741V48.0098ZM158.986 52.5594H156.245V56.6273H158.986V52.5594ZM155.741 52.5594H153V56.6273H155.741V52.5594ZM158.986 57.109H156.245V61.1769H158.986V57.109ZM155.741 57.109H153V61.1769H155.741V57.109ZM167.034 38.911H164.294V42.9789H167.034V38.911ZM163.79 38.911H161.049V42.9789H163.79V38.911ZM167.034 43.4606H164.294V47.5285H167.034V43.4606ZM163.79 43.4606H161.049V47.5285H163.79V43.4606ZM167.034 48.01H164.294V52.0779H167.034V48.01ZM163.79 48.01H161.049V52.0779H163.79V48.01ZM167.034 52.5596H164.294V56.6275H167.034V52.5596ZM163.79 52.5596H161.049V56.6275H163.79V52.5596ZM167.034 57.1092H164.294V61.1771H167.034V57.1092ZM163.79 57.1092H161.049V61.1771H163.79V57.1092ZM174.847 38.9112H172.106V42.9791H174.847V38.9112ZM171.602 38.9112H168.861V42.9791H171.602V38.9112ZM174.847 43.4608H172.106V47.5287H174.847V43.4608ZM171.602 43.4608H168.861V47.5287H171.602V43.4608ZM174.847 48.0102H172.106V52.0781H174.847V48.0102ZM171.602 48.0102H168.861V52.0781H171.602V48.0102ZM174.847 52.5598H172.106V56.6277H174.847V52.5598ZM171.602 52.5598H168.861V56.6277H171.602V52.5598ZM174.847 57.1094H172.106V61.1773H174.847V57.1094ZM171.602 57.1094H168.861V61.1773H171.602V57.1094ZM183.329 36.7893H178.649L179.216 39.4852H182.79L183.329 36.7893ZM181.989 40.3113H179.989C179.638 40.3113 179.35 40.5985 179.35 40.9494V58.1265C179.35 58.4776 179.638 58.7646 179.989 58.7646H181.989C182.34 58.7646 182.628 58.4774 182.628 58.1265V40.9494C182.628 40.5985 182.34 40.3113 181.989 40.3113ZM182.329 59.4805H179.648C179.461 59.4805 179.308 59.6337 179.308 59.8209C179.308 60.0081 179.461 60.1613 179.648 60.1613H182.329C182.517 60.1613 182.67 60.0081 182.67 59.8209C182.67 59.6337 182.517 59.4805 182.329 59.4805ZM182.67 60.8122H179.308V63.4195H182.67V60.8122ZM193.207 77.1514C193.349 77.6444 193.803 78.005 194.342 78.005C194.994 78.005 195.522 77.4766 195.522 76.825C195.522 76.1732 194.993 75.645 194.342 75.645C193.803 75.645 193.349 76.0056 193.207 76.4986H98.0205H97.5015H2.31455C2.17294 76.0056 1.71856 75.645 1.18018 75.645C0.528251 75.645 0 76.1734 0 76.825C0 77.4768 0.528462 78.005 1.18018 78.005C1.71856 78.005 2.17294 77.6444 2.31455 77.1514H97.5015H98.0205H193.207ZM185.142 65.2935H97.7611H10.3804L8.86356 72.5869L97.7611 72.792L186.659 72.5869L185.142 65.2935ZM97.7256 33.5452L97.7611 33.5448L97.7965 33.5452V33.5437C98.7701 33.5066 99.5478 32.7058 99.5478 31.7236C99.5478 30.7411 98.7701 29.9405 97.7965 29.9034V29.9019L97.7611 29.9023L97.7256 29.9019V29.9034C96.7521 29.9407 95.9743 30.7413 95.9743 31.7236C95.9743 32.706 96.7521 33.5066 97.7256 33.5437V33.5452ZM185.172 27.9705H97.7611H10.35V35.4764H97.7611H185.172V27.9705ZM97.7611 29.0062C99.262 29.0062 100.479 30.2226 100.479 31.7234C100.479 33.2241 99.262 34.4405 97.7611 34.4405C96.2601 34.4405 95.0434 33.2241 95.0434 31.7234C95.0434 30.2226 96.2601 29.0062 97.7611 29.0062ZM185.945 23.7906H97.7611H9.57732L7.37209 26.6127L97.7611 26.692L188.15 26.6127L185.945 23.7906ZM60.1609 36.8473H93.3565V63.241H60.1609V36.8473ZM78.0925 38.9112H80.8334V42.9791H78.0925V38.9112ZM85.5967 38.9112H88.3376V42.9791H85.5967V38.9112ZM88.8412 38.9112H91.582V42.9791H88.8412V38.9112ZM85.5967 43.4608H88.3376V47.5287H85.5967V43.4608ZM88.8412 43.4608H91.582V47.5287H88.8412V43.4608ZM85.5967 48.0102H88.3376V52.0781H85.5967V48.0102ZM88.8412 48.0102H91.582V52.0781H88.8412V48.0102ZM85.5967 52.5598H88.3376V56.6277H85.5967V52.5598ZM88.8412 52.5598H91.582V56.6277H88.8412V52.5598ZM85.5967 57.1094H88.3376V61.1773H85.5967V57.1094ZM88.8412 57.1094H91.582V61.1773H88.8412V57.1094ZM81.337 38.9114H84.0778V42.9793H81.337V38.9114ZM78.0925 43.461H80.8334V47.5289H78.0925V43.461ZM81.337 43.461H84.0778V47.5289H81.337V43.461ZM78.0925 48.0104H80.8334V52.0783H78.0925V48.0104ZM81.337 48.0104H84.0778V52.0783H81.337V48.0104ZM78.0925 52.56H80.8334V56.6279H78.0925V52.56ZM81.337 52.56H84.0778V56.6279H81.337V52.56ZM78.0925 57.1096H80.8334V61.1775H78.0925V57.1096ZM81.337 57.1096H84.0778V61.1775H81.337V57.1096ZM70.0438 38.9116H72.7847V42.9795H70.0438V38.9116ZM73.2883 38.9116H76.0291V42.9795H73.2883V38.9116ZM70.0438 43.4612H72.7847V47.5291H70.0438V43.4612ZM73.2883 43.4612H76.0291V47.5291H73.2883V43.4612ZM70.0438 48.0106H72.7847V52.0785H70.0438V48.0106ZM73.2883 48.0106H76.0291V52.0785H73.2883V48.0106ZM70.0438 52.5602H72.7847V56.6281H70.0438V52.5602ZM73.2883 52.5602H76.0291V56.6281H73.2883V52.5602ZM70.0438 57.1098H72.7847V61.1777H70.0438V57.1098ZM73.2883 57.1098H76.0291V61.1777H73.2883V57.1098ZM62.2315 38.9119H64.9724V42.9797H62.2315V38.9119ZM65.4759 38.9119H68.2168V42.9797H65.4759V38.9119ZM62.2315 43.4615H64.9724V47.5293H62.2315V43.4615ZM65.4759 43.4615H68.2168V47.5293H65.4759V43.4615ZM62.2315 48.0108H64.9724V52.0787H62.2315V48.0108ZM65.4759 48.0108H68.2168V52.0787H65.4759V48.0108ZM62.2315 52.5605H64.9724V56.6283H62.2315V52.5605ZM65.4759 52.5605H68.2168V56.6283H65.4759V52.5605ZM62.2315 57.1101H64.9724V61.1779H62.2315V57.1101ZM65.4759 57.1101H68.2168V61.1779H65.4759V57.1101ZM53.7487 36.7899H58.4293L57.862 39.4858H54.2877L53.7487 36.7899ZM55.0888 40.3119H57.0891C57.4403 40.3119 57.7273 40.5991 57.7273 40.95V58.1271C57.7273 58.4782 57.4401 58.7652 57.0891 58.7652H55.0888C54.7376 58.7652 54.4506 58.478 54.4506 58.1271V40.95C54.4506 40.5991 54.7378 40.3119 55.0888 40.3119ZM54.7486 59.4812H57.4293C57.6165 59.4812 57.7697 59.6344 57.7697 59.8215C57.7697 60.0087 57.6165 60.1619 57.4293 60.1619H54.7486C54.5614 60.1619 54.4082 60.0087 54.4082 59.8215C54.4082 59.6344 54.5614 59.4812 54.7486 59.4812ZM54.4082 60.8129H57.77V63.4201H54.4082V60.8129ZM18.6053 36.848H51.8009V63.2416H18.6053V36.848ZM36.5369 38.9119H39.2778V42.9797H36.5369V38.9119ZM44.0411 38.9119H46.782V42.9797H44.0411V38.9119ZM47.2855 38.9119H50.0264V42.9797H47.2855V38.9119ZM44.0411 43.4615H46.782V47.5293H44.0411V43.4615ZM47.2855 43.4615H50.0264V47.5293H47.2855V43.4615ZM44.0411 48.0108H46.782V52.0787H44.0411V48.0108ZM47.2855 48.0108H50.0264V52.0787H47.2855V48.0108ZM44.0411 52.5605H46.782V56.6283H44.0411V52.5605ZM47.2855 52.5605H50.0264V56.6283H47.2855V52.5605ZM44.0411 57.1101H46.782V61.1779H44.0411V57.1101ZM47.2855 57.1101H50.0264V61.1779H47.2855V57.1101ZM39.7813 38.9121H42.5222V42.9799H39.7813V38.9121ZM36.5369 43.4617H39.2778V47.5295H36.5369V43.4617ZM39.7813 43.4617H42.5222V47.5295H39.7813V43.4617ZM36.5369 48.0111H39.2778V52.0789H36.5369V48.0111ZM39.7813 48.0111H42.5222V52.0789H39.7813V48.0111ZM36.5369 52.5607H39.2778V56.6285H36.5369V52.5607ZM39.7813 52.5607H42.5222V56.6285H39.7813V52.5607ZM36.5369 57.1103H39.2778V61.1781H36.5369V57.1103ZM39.7813 57.1103H42.5222V61.1781H39.7813V57.1103ZM28.4882 38.9123H31.2291V42.9801H28.4882V38.9123ZM31.7326 38.9123H34.4735V42.9801H31.7326V38.9123ZM28.4882 43.4619H31.2291V47.5297H28.4882V43.4619ZM31.7326 43.4619H34.4735V47.5297H31.7326V43.4619ZM28.4882 48.0113H31.2291V52.0791H28.4882V48.0113ZM31.7326 48.0113H34.4735V52.0791H31.7326V48.0113ZM28.4882 52.5609H31.2291V56.6287H28.4882V52.5609ZM31.7326 52.5609H34.4735V56.6287H31.7326V52.5609ZM28.4882 57.1105H31.2291V61.1783H28.4882V57.1105ZM31.7326 57.1105H34.4735V61.1783H31.7326V57.1105ZM20.6759 38.9125H23.4167V42.9804H20.6759V38.9125ZM23.9203 38.9125H26.6612V42.9804H23.9203V38.9125ZM20.6759 43.4621H23.4167V47.53H20.6759V43.4621ZM23.9203 43.4621H26.6612V47.53H23.9203V43.4621ZM20.6759 48.0115H23.4167V52.0793H20.6759V48.0115ZM23.9203 48.0115H26.6612V52.0793H23.9203V48.0115ZM20.6759 52.5611H23.4167V56.629H20.6759V52.5611ZM23.9203 52.5611H26.6612V56.629H23.9203V52.5611ZM20.6759 57.1107H23.4167V61.1786H20.6759V57.1107ZM23.9203 57.1107H26.6612V61.1786H23.9203V57.1107ZM12.1933 36.7906H16.8739L16.3066 39.4864H12.7323L12.1933 36.7906ZM13.5334 40.3125H15.5337C15.8849 40.3125 16.1721 40.5997 16.1721 40.9506V58.1278C16.1721 58.4789 15.8849 58.7659 15.5337 58.7659H13.5334C13.1822 58.7659 12.895 58.4787 12.895 58.1278V40.9506C12.895 40.5997 13.1822 40.3125 13.5334 40.3125ZM13.1932 59.4818H15.8741C16.0613 59.4818 16.2145 59.635 16.2145 59.8222C16.2145 60.0093 16.0613 60.1625 15.8741 60.1625H13.1932C13.006 60.1625 12.8528 60.0093 12.8528 59.8222C12.8528 59.635 13.006 59.4818 13.1932 59.4818ZM12.8528 60.8135H16.2145V63.4208H12.8528V60.8135ZM97.7697 0L98.5576 17.186H96.9656L97.7697 0Z" fill="white"/>
</svg>
