<svg width="283" height="284" viewBox="0 0 283 284" fill="none" xmlns="http://www.w3.org/2000/svg">
<path opacity="0.05" d="M141.368 0.866211C219.445 0.866211 282.736 64.1708 282.736 142.234C282.736 220.298 219.445 283.602 141.368 283.602C63.2904 283.602 0 220.298 0 142.234C0 64.1708 63.2904 0.866211 141.368 0.866211ZM141.368 191.713C133.561 191.713 127.231 198.042 127.231 205.849C127.231 213.658 133.561 219.986 141.368 219.986C149.175 219.986 155.505 213.658 155.505 205.849C155.505 198.042 149.175 191.713 141.368 191.713ZM141.368 68.016C119.897 68.016 102.492 85.4215 102.492 106.892C102.492 112.748 107.239 117.495 113.094 117.495C118.462 117.495 122.898 113.506 123.6 108.331L123.697 106.892C123.697 97.1328 131.609 89.2212 141.368 89.2212C151.127 89.2212 159.039 97.1328 159.039 106.892C159.039 114.509 157.13 118.275 149.922 125.725L148.007 127.669C135.594 140.082 130.765 148.13 130.765 163.439C130.765 169.295 135.513 174.041 141.368 174.041C147.224 174.041 151.971 169.295 151.971 163.439C151.971 155.822 153.879 152.056 161.088 144.606L163.002 142.663C175.415 130.25 180.244 122.201 180.244 106.892C180.244 85.4215 162.839 68.016 141.368 68.016Z" fill="#0B0B92"/>
</svg>
